<svg xmlns="http://www.w3.org/2000/svg" width="132.374" height="125.128" viewBox="0 0 132.374 125.128">
  <g id="Group_48" data-name="Group 48" transform="translate(0)">
    <rect id="Rectangle_59" data-name="Rectangle 59" width="89.328" height="0.385" transform="translate(43.046 124.468)" fill="#3f3d56"/>
    <path id="Path_207" data-name="Path 207" d="M813.7,399.613a1.895,1.895,0,0,1-.37,2.79l-9.245,6.347-4.071,2.714a1.119,1.119,0,0,1-1.487-.223h0a1.119,1.119,0,0,1,.3-1.677l3.943-2.289,6.881-6.554-4.424-4.751,3.277-2.458Z" transform="translate(-698.001 -340.661)" fill="#a0616a"/>
    <path id="Path_208" data-name="Path 208" d="M529.16,599.736H526.9l-1.343-18.678,5.734-.164Z" transform="translate(-435.196 -481.02)" fill="#a0616a"/>
    <path id="Path_209" data-name="Path 209" d="M728.234,779.1c-.6.275-1.108-1.954-1.617-1.455a5.468,5.468,0,0,1-5.5,1.092l.665-.007a.889.889,0,0,1-.561-1.159h0a.889.889,0,0,1,.617-.551l1.513-.378,2.376-4.178,2.425-.164h0a5.794,5.794,0,0,1,1.072,4.943C729,778.145,728.664,778.907,728.234,779.1Z" transform="translate(-634.107 -654.326)" fill="#2f2e41"/>
    <path id="Path_210" data-name="Path 210" d="M616.736,595h-2.261l-1.343-18.678,5.9-1.147Z" transform="translate(-507.715 -476.286)" fill="#a0616a"/>
    <path id="Path_211" data-name="Path 211" d="M815.81,778.314c-.6.275-1.108-1.954-1.617-1.455a5.468,5.468,0,0,1-5.5,1.092l.665-.007a.889.889,0,0,1-.561-1.159h0a.889.889,0,0,1,.617-.551l1.513-.378,2.376-4.178,2.589-.328.065.107a6.676,6.676,0,0,1,.715,5.459A2.284,2.284,0,0,1,815.81,778.314Z" transform="translate(-706.625 -653.537)" fill="#2f2e41"/>
    <path id="Path_212" data-name="Path 212" d="M824.78,365.193a4.579,4.579,0,0,0-4.106,3.7l-3.823-7.058a2.09,2.09,0,0,1,.666-2.654h0a2.09,2.09,0,0,1,2.839.416Z" transform="translate(-713.195 -311.919)" fill="#eca86d"/>
    <path id="Path_213" data-name="Path 213" d="M750.043,486.867a41.438,41.438,0,0,1-28.508,1.966c3.543-13.741,7.726-26.166,7.7-36.372l9.5-.819,1.463,2.32a51.46,51.46,0,0,1,7.062,18.012Z" transform="translate(-634.453 -388.795)" fill="#2f2e41"/>
    <circle id="Ellipse_54" data-name="Ellipse 54" cx="4.915" cy="4.915" r="4.915" transform="translate(95.111 32.7)" fill="#a0616a"/>
    <path id="Path_214" data-name="Path 214" d="M579.294,240.877l-6.062.328-.983-5.407,4.915-.819Z" transform="translate(-473.862 -194.579)" fill="#a0616a"/>
    <path id="Path_215" data-name="Path 215" d="M767.969,365.661l-6.641.187-3.353.468c-1.646-5.437-3.031-10.861.328-15.4l3.932-3.932,5.9-.164.078.045a4.75,4.75,0,0,1,2.176,5.526A46.962,46.962,0,0,0,767.969,365.661Z" transform="translate(-663.192 -301.995)" fill="#eca86d"/>
    <path id="Path_216" data-name="Path 216" d="M751.322,423.509l-.412,5.63a1.254,1.254,0,0,1-1.167,1.16h0a1.254,1.254,0,0,1-1.337-1.281l.131-5.509,4.1-15.565.164-9.5,4.587-.164-.328,10.977Z" transform="translate(-656.703 -344.607)" fill="#a0616a"/>
    <path id="Path_217" data-name="Path 217" d="M777.447,360.426a4.579,4.579,0,0,0-5.407,1.147l.225-8.023a2.09,2.09,0,0,1,1.905-1.964h0a2.09,2.09,0,0,1,2.249,1.781Z" transform="translate(-676.274 -305.936)" fill="#eca86d"/>
    <path id="Path_218" data-name="Path 218" d="M784.731,290.7H769.658c3.516-9.311,4.65-17.974,0-25.4.08-2.229,2.939-4.162,5.159-3.948h0c2.622.252,6.146,2.179,6.637,4.767Z" transform="translate(-674.302 -231.217)" fill="#2f2e41"/>
    <path id="Path_219" data-name="Path 219" d="M277.43,115.846h-.687V97.012a10.9,10.9,0,0,0-10.9-10.9h-39.9a10.9,10.9,0,0,0-10.9,10.9V200.338a10.9,10.9,0,0,0,10.9,10.9h39.9a10.9,10.9,0,0,0,10.9-10.9V129.253h.688Z" transform="translate(-215.038 -86.111)" fill="#3f3d56"/>
    <path id="Path_220" data-name="Path 220" d="M280.769,102.606H275.56a3.868,3.868,0,0,1-3.581,5.328h-22.86a3.868,3.868,0,0,1-3.581-5.328h-4.865a8.141,8.141,0,0,0-8.141,8.141V213.921a8.141,8.141,0,0,0,8.141,8.141h40.1a8.141,8.141,0,0,0,8.141-8.141V110.747a8.141,8.141,0,0,0-8.141-8.141Z" transform="translate(-229.525 -99.77)" fill="#fff"/>
    <rect id="Rectangle_60" data-name="Rectangle 60" width="42.295" height="36.277" transform="translate(10.048 18.953)" fill="#e6e6e6"/>
    <circle id="Ellipse_55" data-name="Ellipse 55" cx="3.095" cy="3.095" r="3.095" transform="translate(19.505 56.606)" fill="#eca86d"/>
    <path id="Path_221" data-name="Path 221" d="M125.54,339.523H124.25v-1.289h-.516v1.289h-1.289v.516h1.289v1.289h.516v-1.289h1.289Z" transform="translate(-101.393 -280.081)" fill="#fff"/>
    <circle id="Ellipse_56" data-name="Ellipse 56" cx="3.095" cy="3.095" r="3.095" transform="translate(35.838 56.606)" fill="#eca86d"/>
    <rect id="Rectangle_61" data-name="Rectangle 61" width="0.516" height="3.095" transform="translate(40.48 59.442) rotate(90)" fill="#fff"/>
    <path id="Path_222" data-name="Path 222" d="M387.425,222.66h-3.343a.443.443,0,0,0-.443.443v1.467a.443.443,0,0,0,.443.443h.554v2.2h2.235v-2.2h.554a.443.443,0,0,0,.443-.443V223.1a.443.443,0,0,0-.443-.443Z" transform="translate(-354.652 -199.183)" fill="#eca86d"/>
    <path id="Path_223" data-name="Path 223" d="M375.955,246.889a17.184,17.184,0,0,1-2.989-10.188.362.362,0,0,0-.283-.362v-.634h-3.53v.625H369.1a.362.362,0,0,0-.362.363q0,.013,0,.026a15.682,15.682,0,0,1-2.817,10.429,1,1,0,0,0-.181.6l.386,11.94a1.034,1.034,0,0,0,1.025,1h7.984a1.034,1.034,0,0,0,1.025-1.015l.149-11.592A2.092,2.092,0,0,0,375.955,246.889Z" transform="translate(-339.834 -209.985)" fill="#3f3d56"/>
    <path id="Path_224" data-name="Path 224" d="M392.4,225.44a.956.956,0,0,1-1.912,0" transform="translate(-360.319 -201.485)" opacity="0.2"/>
    <path id="Path_225" data-name="Path 225" d="M380.87,313.46H379.9a2.538,2.538,0,0,0-5.016,0h-.967a.714.714,0,0,0-.705.822l1.05,6.826h6.03l1.276-6.8a.714.714,0,0,0-.7-.845Z" transform="translate(-346.012 -272.59)" fill="#eca86d"/>
    <rect id="Rectangle_62" data-name="Rectangle 62" width="42.295" height="36.277" transform="translate(10.048 70.016)" fill="#e6e6e6"/>
    <circle id="Ellipse_57" data-name="Ellipse 57" cx="3.095" cy="3.095" r="3.095" transform="translate(19.505 107.669)" fill="#eca86d"/>
    <path id="Path_226" data-name="Path 226" d="M125.54,636.523H124.25v-1.289h-.516v1.289h-1.289v.516h1.289v1.289h.516v-1.289h1.289Z" transform="translate(-101.393 -526.017)" fill="#fff"/>
    <circle id="Ellipse_58" data-name="Ellipse 58" cx="3.095" cy="3.095" r="3.095" transform="translate(35.838 107.669)" fill="#eca86d"/>
    <rect id="Rectangle_63" data-name="Rectangle 63" width="0.516" height="3.095" transform="translate(40.48 110.506) rotate(90)" fill="#fff"/>
    <path id="Path_227" data-name="Path 227" d="M342.349,545.844h.023a3.961,3.961,0,0,0,3.709-2.484,12.966,12.966,0,1,0-17.273,7.1,3.928,3.928,0,0,0,4.362-.809A12.924,12.924,0,0,1,342.349,545.844Z" transform="translate(-302.827 -450.055)" fill="#fff"/>
    <circle id="Ellipse_59" data-name="Ellipse 59" cx="4.282" cy="4.282" r="4.282" transform="translate(28.579 83.299)" fill="#f9a825"/>
  </g>
</svg>
