<svg xmlns="http://www.w3.org/2000/svg" width="130.778" height="109.136" viewBox="0 0 130.778 109.136">
  <g id="Group_47" data-name="Group 47" transform="translate(0 0)">
    <path id="Path_161" data-name="Path 161" d="M209.887,105.157h-.594V88.89a9.415,9.415,0,0,0-9.415-9.415H165.415A9.415,9.415,0,0,0,156,88.89v89.241a9.415,9.415,0,0,0,9.415,9.415h34.463a9.415,9.415,0,0,0,9.415-9.415V116.736h.594Z" transform="translate(-156 -79.476)" fill="#234b6d"/>
    <path id="Path_162" data-name="Path 162" d="M215.3,96.107h-4.5a3.34,3.34,0,0,1-3.093,4.6H187.965a3.34,3.34,0,0,1-3.093-4.6h-4.2a7.031,7.031,0,0,0-7.031,7.031v89.11a7.031,7.031,0,0,0,7.031,7.031H215.3a7.031,7.031,0,0,0,7.031-7.031v-89.11a7.031,7.031,0,0,0-7.031-7.031Z" transform="translate(-171.042 -93.658)" fill="#fff"/>
    <path id="Path_163" data-name="Path 163" d="M256.113,219.111h-2.068a.274.274,0,0,0-.274.274v.908a.274.274,0,0,0,.274.274h.343v1.36h1.382v-1.36h.343a.274.274,0,0,0,.274-.274v-.908A.274.274,0,0,0,256.113,219.111Z" transform="translate(-239.373 -198.547)" fill="#e6e6e6"/>
    <path id="Path_164" data-name="Path 164" d="M247.164,235.45a10.63,10.63,0,0,1-1.849-6.3.224.224,0,0,0-.175-.224v-.392h-2.184v.387h-.03a.224.224,0,0,0-.224.224c0,.005,0,.011,0,.016a9.7,9.7,0,0,1-1.743,6.452.618.618,0,0,0-.112.374l.239,7.386a.639.639,0,0,0,.634.617h4.939a.64.64,0,0,0,.634-.628l.092-7.171A1.294,1.294,0,0,0,247.164,235.45Z" transform="translate(-228.352 -206.58)" fill="#234b6d"/>
    <path id="Path_165" data-name="Path 165" d="M250.977,292.166h-4.3a.441.441,0,0,0-.436.509l.65,4.223h3.73l.789-4.209a.441.441,0,0,0-.434-.523Z" transform="translate(-232.947 -260.843)" fill="#fff"/>
    <path id="Path_166" data-name="Path 166" d="M412.4,369.345H410.33a.274.274,0,0,0-.274.274v.908a.274.274,0,0,0,.274.274h.343v1.36h1.382V370.8h.343a.274.274,0,0,0,.274-.274v-.908a.274.274,0,0,0-.274-.274Z" transform="translate(-372.64 -326.655)" fill="#e6e6e6"/>
    <path id="Path_167" data-name="Path 167" d="M403.448,385.685a10.63,10.63,0,0,1-1.849-6.3.224.224,0,0,0-.175-.224v-.392H399.24v.387h-.03a.224.224,0,0,0-.224.224c0,.005,0,.011,0,.016a9.7,9.7,0,0,1-1.743,6.452.618.618,0,0,0-.112.374l.239,7.386a.639.639,0,0,0,.634.617h4.939a.64.64,0,0,0,.634-.628l.092-7.171A1.294,1.294,0,0,0,403.448,385.685Z" transform="translate(-361.62 -334.69)" fill="#234b6d"/>
    <path id="Path_168" data-name="Path 168" d="M407.261,442.4h-4.3a.441.441,0,0,0-.436.509l.65,4.223h3.73l.789-4.209a.441.441,0,0,0-.434-.523Z" transform="translate(-366.215 -388.952)" fill="#fff"/>
    <path id="Path_169" data-name="Path 169" d="M243.5,581.733h-.981a.13.13,0,0,0-.13.13v.43a.13.13,0,0,0,.13.13h.163v.645h.656v-.645h.163a.13.13,0,0,0,.13-.13v-.43A.13.13,0,0,0,243.5,581.733Z" transform="translate(-229.669 -507.764)" fill="#e6e6e6"/>
    <path id="Path_170" data-name="Path 170" d="M239.258,589.483a5.042,5.042,0,0,1-.877-2.99.106.106,0,0,0-.083-.106V586.2h-1.036v.183h-.014a.106.106,0,0,0-.106.106s0,.005,0,.008a4.6,4.6,0,0,1-.827,3.06.293.293,0,0,0-.053.177l.113,3.5a.3.3,0,0,0,.3.293h2.343a.3.3,0,0,0,.3-.3l.044-3.4A.614.614,0,0,0,239.258,589.483Z" transform="translate(-224.442 -511.575)" fill="#234b6d"/>
    <rect id="Rectangle_49" data-name="Rectangle 49" width="2.235" height="1.118" transform="translate(12.244 79.196)" fill="#fff"/>
    <path id="Path_171" data-name="Path 171" d="M274.5,581.733h-.981a.13.13,0,0,0-.13.13v.43a.13.13,0,0,0,.13.13h.163v.645h.656v-.645h.163a.13.13,0,0,0,.13-.13v-.43A.13.13,0,0,0,274.5,581.733Z" transform="translate(-256.104 -507.764)" fill="#e6e6e6"/>
    <path id="Path_172" data-name="Path 172" d="M270.258,589.483a5.042,5.042,0,0,1-.877-2.99.106.106,0,0,0-.083-.106V586.2h-1.036v.183h-.014a.106.106,0,0,0-.106.106s0,.005,0,.008a4.6,4.6,0,0,1-.827,3.06.293.293,0,0,0-.053.177l.113,3.5a.3.3,0,0,0,.3.293h2.343a.3.3,0,0,0,.3-.3l.044-3.4A.614.614,0,0,0,270.258,589.483Z" transform="translate(-250.876 -511.575)" fill="#234b6d"/>
    <rect id="Rectangle_50" data-name="Rectangle 50" width="2.235" height="1.118" transform="translate(16.809 79.196)" fill="#fff"/>
    <path id="Path_173" data-name="Path 173" d="M305.5,581.733h-.981a.13.13,0,0,0-.13.13v.43a.13.13,0,0,0,.13.13h.163v.645h.656v-.645h.163a.13.13,0,0,0,.13-.13v-.43A.13.13,0,0,0,305.5,581.733Z" transform="translate(-282.538 -507.764)" fill="#e6e6e6"/>
    <path id="Path_174" data-name="Path 174" d="M301.258,589.483a5.042,5.042,0,0,1-.877-2.99.106.106,0,0,0-.083-.106V586.2h-1.036v.183h-.014a.106.106,0,0,0-.106.106s0,.005,0,.008a4.6,4.6,0,0,1-.827,3.06.293.293,0,0,0-.053.177l.113,3.5a.3.3,0,0,0,.3.293h2.343a.3.3,0,0,0,.3-.3l.044-3.4A.614.614,0,0,0,301.258,589.483Z" transform="translate(-277.311 -511.575)" fill="#234b6d"/>
    <rect id="Rectangle_51" data-name="Rectangle 51" width="2.235" height="1.118" transform="translate(21.375 79.196)" fill="#fff"/>
    <path id="Path_175" data-name="Path 175" d="M388.008,523.613h-2.068a.274.274,0,0,0-.274.274v.908a.274.274,0,0,0,.274.274h.343v1.36h1.382v-1.36h.343a.274.274,0,0,0,.274-.274v-.908A.274.274,0,0,0,388.008,523.613Z" transform="translate(-351.843 -458.204)" fill="#e6e6e6"/>
    <path id="Path_176" data-name="Path 176" d="M379.059,539.953a10.63,10.63,0,0,1-1.849-6.3.224.224,0,0,0-.175-.224v-.392h-2.184v.387h-.03a.224.224,0,0,0-.224.224c0,.005,0,.011,0,.016a9.7,9.7,0,0,1-1.743,6.452.618.618,0,0,0-.112.374l.239,7.386a.64.64,0,0,0,.634.617h4.939a.64.64,0,0,0,.634-.628l.092-7.171A1.294,1.294,0,0,0,379.059,539.953Z" transform="translate(-340.823 -466.238)" fill="#234b6d"/>
    <path id="Path_177" data-name="Path 177" d="M382.872,596.668h-4.3a.441.441,0,0,0-.436.509l.65,4.223h3.73l.789-4.209a.441.441,0,0,0-.434-.523Z" transform="translate(-345.418 -520.5)" fill="#fff"/>
    <path id="Path_178" data-name="Path 178" d="M337.869,245.361H325.544c.862-4.659.663-10.284,0-16.334h12.325C337.223,235.077,337.03,240.7,337.869,245.361Z" transform="translate(-300.575 -207.002)" fill="#234b6d"/>
    <circle id="Ellipse_41" data-name="Ellipse 41" cx="2.97" cy="2.97" r="2.97" transform="translate(28.236 26.777)" fill="#fff"/>
    <path id="Path_179" data-name="Path 179" d="M261.239,392.571H248.914c.862-4.659.663-10.284,0-16.334h12.325C260.593,382.287,260.4,387.913,261.239,392.571Z" transform="translate(-235.23 -332.532)" fill="#234b6d"/>
    <circle id="Ellipse_42" data-name="Ellipse 42" cx="2.97" cy="2.97" r="2.97" transform="translate(16.951 48.457)" fill="#234b6d"/>
    <path id="Path_180" data-name="Path 180" d="M385.258,252.419H372.933c.862-4.659.663-10.284,0-16.334h12.325C384.612,242.135,384.419,247.76,385.258,252.419Z" transform="translate(-340.985 -213.021)" fill="#e6e6e6"/>
    <circle id="Ellipse_43" data-name="Ellipse 43" cx="2.97" cy="2.97" r="2.97" transform="translate(35.215 27.816)" fill="#fff"/>
    <path id="Path_181" data-name="Path 181" d="M385.258,247.378H372.933c.862-4.659.663-10.284,0-16.334h12.325C384.612,237.094,384.419,242.719,385.258,247.378Z" transform="translate(-340.985 -208.722)" fill="#e6e6e6"/>
    <circle id="Ellipse_44" data-name="Ellipse 44" cx="2.97" cy="2.97" r="2.97" transform="translate(35.215 27.073)" fill="#fff"/>
    <path id="Path_182" data-name="Path 182" d="M385.258,252.419H372.933c.862-4.659.663-10.284,0-16.334h12.325C384.612,242.135,384.419,247.76,385.258,252.419Z" transform="translate(-340.985 -213.021)" fill="#234b6d"/>
    <circle id="Ellipse_45" data-name="Ellipse 45" cx="2.97" cy="2.97" r="2.97" transform="translate(35.215 27.816)" fill="#fff"/>
    <rect id="Rectangle_52" data-name="Rectangle 52" width="40.39" height="4.455" transform="translate(6.705 37.468)" fill="#234b6d"/>
    <rect id="Rectangle_53" data-name="Rectangle 53" width="40.39" height="4.455" transform="translate(6.705 59.593)" fill="#234b6d"/>
    <rect id="Rectangle_54" data-name="Rectangle 54" width="40.39" height="4.455" transform="translate(6.705 81.719)" fill="#234b6d"/>
    <path id="Path_183" data-name="Path 183" d="M894.593,638.651l-10.062-7.117c3.394-3.306,6.48-8.013,9.432-13.336l10.062,7.117C900,629.882,896.6,634.364,894.593,638.651Z" transform="translate(-777.237 -538.859)" fill="#eca86d"/>
    <circle id="Ellipse_46" data-name="Ellipse 46" cx="2.97" cy="2.97" r="2.97" transform="translate(114.388 86.275)" fill="#fff"/>
    <path id="Path_184" data-name="Path 184" d="M616.019,536.554h-1.1a.146.146,0,0,0-.146.146v.485a.146.146,0,0,0,.146.146h.183v.726h.739v-.726h.183a.146.146,0,0,0,.146-.146V536.7A.146.146,0,0,0,616.019,536.554Z" transform="translate(-547.204 -469.239)" fill="#e6e6e6"/>
    <path id="Path_185" data-name="Path 185" d="M611.238,545.283a5.679,5.679,0,0,1-.988-3.367.12.12,0,0,0-.094-.12v-.209H608.99v.207h-.016a.12.12,0,0,0-.12.12s0,.006,0,.009a5.182,5.182,0,0,1-.931,3.447.33.33,0,0,0-.06.2l.128,3.946a.342.342,0,0,0,.339.33h2.639a.342.342,0,0,0,.339-.335l.049-3.831A.691.691,0,0,0,611.238,545.283Z" transform="translate(-541.316 -473.531)" fill="#eca86d"/>
    <path id="Path_186" data-name="Path 186" d="M618.04,537.627a.316.316,0,0,1-.632,0" transform="translate(-549.455 -470.154)" opacity="0.2"/>
    <rect id="Rectangle_55" data-name="Rectangle 55" width="2.227" height="1.485" transform="translate(67.18 72.512)" fill="#fff"/>
    <path id="Path_187" data-name="Path 187" d="M847.043,641.218h-2.068a.274.274,0,0,0-.274.274v.908a.274.274,0,0,0,.274.274h.343v1.36H846.7v-1.36h.343a.274.274,0,0,0,.274-.274v-.908a.274.274,0,0,0-.274-.274Z" transform="translate(-743.274 -558.489)" fill="#e6e6e6"/>
    <path id="Path_188" data-name="Path 188" d="M838.094,657.558a10.63,10.63,0,0,1-1.849-6.3.224.224,0,0,0-.175-.224v-.392h-2.184v.387h-.03a.224.224,0,0,0-.224.224c0,.005,0,.011,0,.016a9.7,9.7,0,0,1-1.743,6.452.618.618,0,0,0-.112.374l.239,7.386a.639.639,0,0,0,.634.617h4.939a.64.64,0,0,0,.634-.628l.092-7.171A1.294,1.294,0,0,0,838.094,657.558Z" transform="translate(-732.254 -566.523)" fill="#eca86d"/>
    <path id="Path_189" data-name="Path 189" d="M850.827,643.226a.591.591,0,0,1-1.183,0" transform="translate(-747.489 -560.201)" opacity="0.2"/>
    <path id="Path_190" data-name="Path 190" d="M841.907,714.273h-4.3a.441.441,0,0,0-.436.508l.65,4.223h3.73l.789-4.209a.441.441,0,0,0-.434-.523Z" transform="translate(-736.849 -620.785)" fill="#fff"/>
    <path id="Path_191" data-name="Path 191" d="M749.183,662.419H736.858c.862-4.659.663-10.284,0-16.334h12.325C748.537,652.135,748.344,657.76,749.183,662.419Z" transform="translate(-651.313 -562.639)" fill="#eca86d"/>
    <circle id="Ellipse_47" data-name="Ellipse 47" cx="2.97" cy="2.97" r="2.97" transform="translate(88.812 88.198)" fill="#fff"/>
    <path id="Path_192" data-name="Path 192" d="M322.243,292.056l2.767-.252,1.761-4.276-3.144-1.761Z" transform="translate(-274.785 -243.682)" fill="#ffb8b8"/>
    <path id="Path_193" data-name="Path 193" d="M614.277,473.788h0a1.56,1.56,0,0,0-1.355-2.138l-4.3-.256-.633,2.1,4.422,1.215A1.56,1.56,0,0,0,614.277,473.788Z" transform="translate(-541.427 -413.675)" fill="#ffb8b8"/>
    <path id="Path_194" data-name="Path 194" d="M496.818,408.9l-.047-3.947-9.542-1.523L479.877,395a2.406,2.406,0,0,0-3.136-.429h0a2.406,2.406,0,0,0-.419,3.67l6.065,7.463Z" transform="translate(-428.58 -347.829)" fill="#575a89"/>
    <path id="Path_195" data-name="Path 195" d="M463.726,549.512h2.515L472.48,521.3l6.463,8.714,3.773,18.865h2.39l-.5-20.248L476.177,507h-8.3c-2.268,4.105-4.048,8.337-2.012,12.7Z" transform="translate(-418.406 -444.04)" fill="#2f2e41"/>
    <path id="Path_196" data-name="Path 196" d="M582.031,790.441a.656.656,0,0,0,.512.842l6.155,1.092a1.013,1.013,0,0,0,1.149-.694h0a1.006,1.006,0,0,0-.492-1.2,9.411,9.411,0,0,1-3.394-2.951,1.725,1.725,0,0,1-2.235.106l-.852.107Z" transform="translate(-519.263 -683.256)" fill="#2f2e41"/>
    <path id="Path_197" data-name="Path 197" d="M455.645,790.441a.656.656,0,0,0,.512.842l6.155,1.092a1.013,1.013,0,0,0,1.149-.694h0a1.006,1.006,0,0,0-.492-1.2,9.412,9.412,0,0,1-3.394-2.951,1.725,1.725,0,0,1-2.235.106l-.852.107Z" transform="translate(-411.49 -683.256)" fill="#2f2e41"/>
    <circle id="Ellipse_48" data-name="Ellipse 48" cx="3.521" cy="3.521" r="3.521" transform="translate(48.527 38.376)" fill="#ffb8b8"/>
    <path id="Path_198" data-name="Path 198" d="M471.772,407.454l9.181-.251-2.7-8.486c1.676-2.686-.011-5.37-2.4-8.052l-1.886-1.258-3.018-.252h0a7.41,7.41,0,0,0-2,5.162A33.253,33.253,0,0,0,471.772,407.454Z" transform="translate(-422.868 -343.548)" fill="#575a89"/>
    <path id="Path_199" data-name="Path 199" d="M598.5,526.575h0a1.56,1.56,0,0,0-.4-2.5l-3.849-1.926-1.409,1.685,3.588,2.856A1.56,1.56,0,0,0,598.5,526.575Z" transform="translate(-528.507 -456.957)" fill="#ffb8b8"/>
    <path id="Path_200" data-name="Path 200" d="M514.227,423.628l1.509-3.647-8.174-5.154-3.442-10.643a2.406,2.406,0,0,0-2.714-1.628h0a2.406,2.406,0,0,0-1.829,3.209l2.64,9.247Z" transform="translate(-448.848 -354.943)" fill="#575a89"/>
    <path id="Path_201" data-name="Path 201" d="M470.13,330.276a6.668,6.668,0,0,0,2.012,4.4c.755.612,1.753.586,2.138-.252a9.967,9.967,0,0,1,4.15-4.15c3.193-1.694-1.132-4.592-4.15-4.15C472.012,326.458,470.13,327.984,470.13,330.276Z" transform="translate(-423.867 -289.763)" fill="#2f2e41"/>
    <circle id="Ellipse_49" data-name="Ellipse 49" cx="2.515" cy="2.515" r="2.515" transform="translate(45.886 33.597)" fill="#2f2e41"/>
    <path id="Path_202" data-name="Path 202" d="M490.817,304.139a2.514,2.514,0,0,0-2.327-2.506c.063,0,.125-.01.189-.01a2.515,2.515,0,1,1,0,5.031c-.064,0-.126,0-.189-.01A2.514,2.514,0,0,0,490.817,304.139Z" transform="translate(-439.524 -268.907)" fill="#2f2e41"/>
    <ellipse id="Ellipse_50" data-name="Ellipse 50" cx="0.566" cy="0.755" rx="0.566" ry="0.755" transform="translate(51.545 41.646)" fill="#ffb8b8"/>
    <path id="Path_203" data-name="Path 203" d="M522.053,447.708H482.9l-8.292-39.2h-7.076v-1.759h8.5l8.292,39.2h37.73Z" transform="translate(-398.675 -346.849)" fill="#3f3d56"/>
    <circle id="Ellipse_51" data-name="Ellipse 51" cx="3.769" cy="3.769" r="3.769" transform="translate(86.191 100.482)" fill="#3f3d56"/>
    <circle id="Ellipse_52" data-name="Ellipse 52" cx="3.769" cy="3.769" r="3.769" transform="translate(114.333 100.482)" fill="#3f3d56"/>
    <path id="Path_204" data-name="Path 204" d="M729.4,566.363h-38.1l-6.722-33.218H735.71a1.806,1.806,0,0,1,1.784,2.086l-6.308,29.606a1.8,1.8,0,0,1-1.784,1.526Zm-37.683-.5H729.4a1.3,1.3,0,0,0,1.287-1.1L737,535.153a1.3,1.3,0,0,0-1.288-1.506H685.194Z" transform="translate(-606.738 -466.332)" fill="#3f3d56"/>
    <path id="Path_205" data-name="Path 205" d="M599.025,488l-4.4-32.819.5-.082,4.4,32.819Z" transform="translate(-507.051 -388.074)" fill="#3f3d56"/>
    <path id="Path_206" data-name="Path 206" d="M787.839,487.75l-.5-.08,4.273-32.568.5.08Z" transform="translate(-671.389 -388.078)" fill="#3f3d56"/>
    <rect id="Rectangle_56" data-name="Rectangle 56" width="0.503" height="32.819" transform="translate(104.286 67.064)" fill="#3f3d56"/>
    <rect id="Rectangle_57" data-name="Rectangle 57" width="0.503" height="48.644" transform="translate(80.412 76.361) rotate(-89.861)" fill="#3f3d56"/>
    <rect id="Rectangle_58" data-name="Rectangle 58" width="42.735" height="0.503" transform="translate(82.89 91.674) rotate(-0.392)" fill="#3f3d56"/>
    <ellipse id="Ellipse_53" data-name="Ellipse 53" cx="2.764" cy="1.508" rx="2.764" ry="1.508" transform="translate(66.844 59.024)" fill="#3f3d56"/>
  </g>
</svg>
