<svg xmlns="http://www.w3.org/2000/svg" width="178.726" height="87.587" viewBox="0 0 178.726 87.587">
  <g id="Component_3_3" data-name="Component 3 – 3" transform="translate(0 1.5)">
    <g id="Group_1" data-name="Group 1">
      <path id="Path_1" data-name="Path 1" d="M4290.494,106.074H4251.06l9.556-25.109s-20.264-23.145-56.9-23.657-56.76,23.657-56.76,23.657l7.808,25.109h-41.439" transform="translate(-4113.325 -57.3)" fill="none" stroke="#234b6d" stroke-width="3"/>
      <path id="Path_2" data-name="Path 2" d="M4145.522,92.193A85.272,85.272,0,0,1,4159.7,82.23c9.222-5.292,22.806-10.9,38.155-10.569,29.406.637,53.28,20.532,53.28,20.532" transform="translate(-4107.455 -57.3)" fill="none" stroke="#234b6d" stroke-width="3"/>
      <circle id="Ellipse_1" data-name="Ellipse 1" cx="3" cy="3" r="3" transform="translate(62.109 28.7)" fill="#234b6d"/>
      <circle id="Ellipse_2" data-name="Ellipse 2" cx="6" cy="6" r="6" transform="translate(88.169 24.7)" fill="#234b6d"/>
      <circle id="Ellipse_3" data-name="Ellipse 3" cx="2" cy="2" r="2" transform="translate(117.284 38.7)" fill="#234b6d"/>
      <g id="Ellipse_5" data-name="Ellipse 5" transform="translate(115.169 27.7)" fill="none" stroke="#234b6d" stroke-width="1">
        <circle cx="3" cy="3" r="3" stroke="none"/>
        <circle cx="3" cy="3" r="2.5" fill="none"/>
      </g>
      <g id="Ellipse_4" data-name="Ellipse 4" transform="translate(68.004 39.7)" fill="none" stroke="#234b6d" stroke-width="1">
        <circle cx="3" cy="3" r="3" stroke="none"/>
        <circle cx="3" cy="3" r="2.5" fill="none"/>
      </g>
    </g>
    <path id="Path_7" data-name="Path 7" d="M1.912,0V-16.994H5.371L8.357-9.088q.322.881.816,2.4t.645,1.966H9.9q1.074-3.115,1.525-4.361l2.922-7.906h3.5V0H15.061V-7.713q0-1.934.3-5.242h-.086L14.051-9.346,10.936-.967H8.83L5.758-9.346,4.49-12.977H4.383a48.834,48.834,0,0,1,.344,5.264V0ZM20.646-8.486a9.878,9.878,0,0,1,2-6.445,6.5,6.5,0,0,1,5.307-2.449,6.486,6.486,0,0,1,5.3,2.438,9.9,9.9,0,0,1,1.987,6.456,9.824,9.824,0,0,1-2,6.445A6.505,6.505,0,0,1,27.951.387a6.528,6.528,0,0,1-5.307-2.428A9.824,9.824,0,0,1,20.646-8.486Zm2.922,0a8.309,8.309,0,0,0,1.171,4.716,3.68,3.68,0,0,0,3.212,1.729,3.667,3.667,0,0,0,3.19-1.719,8.3,8.3,0,0,0,1.171-4.727A8.495,8.495,0,0,0,31.163-13.2a3.636,3.636,0,0,0-3.212-1.751A3.669,3.669,0,0,0,24.739-13.2,8.373,8.373,0,0,0,23.568-8.486ZM38.049,0V-16.994h2.965l5.135,9.346,1.891,3.438h.107a34.724,34.724,0,0,1-.322-4.9v-7.885H50.66V0H47.7L42.561-9.174,40.67-12.719h-.107a38.513,38.513,0,0,1,.322,4.9V0ZM53.131-3.631l2.492-.838a4.69,4.69,0,0,0,1.74,1.751,4.828,4.828,0,0,0,2.514.677,3.538,3.538,0,0,0,2.277-.687,2.178,2.178,0,0,0,.859-1.783,2.083,2.083,0,0,0-.913-1.8,10.831,10.831,0,0,0-2.675-1.246,22.864,22.864,0,0,1-3.395-1.332,4.15,4.15,0,0,1-2.3-3.8,4.1,4.1,0,0,1,1.654-3.395,6.826,6.826,0,0,1,4.318-1.289,6.689,6.689,0,0,1,3.749,1.021,6.018,6.018,0,0,1,2.267,2.61l-2.385.795a4.236,4.236,0,0,0-3.652-2,3.562,3.562,0,0,0-2.213.623,1.958,1.958,0,0,0-.816,1.633,2.433,2.433,0,0,0,.064.569,1.257,1.257,0,0,0,.258.5q.193.236.344.408a1.91,1.91,0,0,0,.494.365q.344.193.548.3a6.04,6.04,0,0,0,.677.279q.473.172.677.236t.763.247l.752.247a13.781,13.781,0,0,1,1.74.688,8.035,8.035,0,0,1,1.472.935A3.8,3.8,0,0,1,65.549-6.51a4.461,4.461,0,0,1,.387,1.891,4.387,4.387,0,0,1-1.708,3.7A7.05,7.05,0,0,1,59.813.387,7.666,7.666,0,0,1,55.709-.7,6.433,6.433,0,0,1,53.131-3.631ZM66.473-14.566v-2.428H79.105v2.428h-4.9V0H71.371V-14.566ZM81.211,0V-16.994h11.15v2.428H84.047v4.6h7.5v2.385h-7.5v5.178h8.529V0ZM97.99-9.2h3.566A3.16,3.16,0,0,0,103.77-9.9a2.63,2.63,0,0,0,.773-2.041,2.442,2.442,0,0,0-.795-1.9,3.245,3.245,0,0,0-2.256-.72h-3.5ZM95.154,0V-16.994h6.875a5.527,5.527,0,0,1,4.028,1.375,4.609,4.609,0,0,1,1.407,3.438,4.809,4.809,0,0,1-.773,2.836,3.936,3.936,0,0,1-1.783,1.482,3.607,3.607,0,0,1,1.16,1.182,6.594,6.594,0,0,1,.58,1.891A15.4,15.4,0,0,0,108.5,0h-3.158a15.418,15.418,0,0,1-1.654-4.576,3.873,3.873,0,0,0-.7-1.654,1.775,1.775,0,0,0-1.45-.559H97.99V0Zm20.8,0V-16.994h6.639a5.768,5.768,0,0,1,4.157,1.429,4.978,4.978,0,0,1,1.493,3.771,4.883,4.883,0,0,1-1.536,3.8,5.819,5.819,0,0,1-4.071,1.4h-3.846V0Zm2.836-9h3.459a3.362,3.362,0,0,0,2.277-.709,2.611,2.611,0,0,0,.816-2.084,2.619,2.619,0,0,0-.795-2.062,3.381,3.381,0,0,0-2.32-.709h-3.437ZM130.9,0V-16.994h2.836V0Zm5.436-2.062,8.809-12.5h-8.1v-2.428h11.6v2.105L139.82-2.406h9.066V0H136.34Zm13.729,0,8.809-12.5h-8.1v-2.428h11.6v2.105l-8.83,12.482h9.066V0H150.068ZM168.33-6.488h5.07l-1.439-4.4q-.15-.473-.333-1.053t-.387-1.278q-.2-.7-.312-1.042H170.8q-.064.215-1.031,3.373ZM163.174,0l6.145-16.994h3.115L178.557,0h-3.008l-1.4-4.211h-6.574L166.182,0Z" transform="translate(0.169 85.7)" fill="#234b6d"/>
    <rect id="Rectangle_13" data-name="Rectangle 13" width="4" height="8" rx="2" transform="translate(9.169 59.7)" fill="#234b6d"/>
    <rect id="Rectangle_14" data-name="Rectangle 14" width="4" height="8" rx="2" transform="translate(170.169 55.7)" fill="#234b6d"/>
    <path id="Path_5" data-name="Path 5" d="M3,1.562c1.657,0,3-.219,3,1.438V9A3,3,0,0,1,0,9V3C0,1.343,1.343,1.562,3,1.562Z" transform="translate(22.169 47.222)" fill="#234b6d"/>
    <path id="Path_6" data-name="Path 6" d="M3,1.562c1.657,0,3-.219,3,1.438V9A3,3,0,0,1,0,9V3C0,1.343,1.343,1.562,3,1.562Z" transform="translate(159.169 47.222)" fill="#234b6d"/>
  </g>
</svg>
