<svg xmlns="http://www.w3.org/2000/svg" width="394.271" height="218.668" viewBox="0 0 394.271 218.668">
  <g id="Group_46" data-name="Group 46" transform="translate(-0.011)">
    <path id="Path_28" data-name="Path 28" d="M443.4,350.526q-.659,1.42-1.314,2.8-1.022,2.147-2.018,4.211c-.3.61-.591,1.208-.878,1.806-3.256,6.653-6.3,12.537-8.879,17.376a27.72,27.72,0,0,1-24.161,14.665l-57.421.625h-.606l-4.922.053-4.211.045-12.9.148h-.523l-6.573.072h-.2l-40.515.439-36.164.379-4.207.045-26.126.284h-.042l-16.944.182h-.182l-53.578.579-16.028.174a33.319,33.319,0,0,1-4.086-.2h0c-.462-.053-.924-.114-1.382-.186a33.085,33.085,0,0,1-19.421-10.428,75.847,75.847,0,0,1-15.282-26.054q-.731-2.079-1.363-4.211C71.812,313.878,86.033,263,111.63,228.967q1.609-2.136,3.271-4.165l.027-.03c7.872-9.663,16.7-17.736,26.1-23.476,16.66-10.189,35.119-13.059,53.275-4.506a119.173,119.173,0,0,0,43.608,11.568c1.4.091,2.81.159,4.207.2,31.893,1,61.783-10.488,96.883-17.906,1.4-.3,2.8-.587,4.211-.863,25.04-4.983,52.817-7.611,85.849-2.086a71.6,71.6,0,0,1,10.132,2.423q2.185.7,4.211,1.515c15.767,6.414,24.366,18.266,28.02,33.116q.519,2.067.9,4.207C478.8,264.684,459.825,315.354,443.4,350.526Z" transform="translate(-79.34 -175.768)" fill="#f2f2f2"/>
    <path id="Path_29" data-name="Path 29" d="M274.305,361.8a36.05,36.05,0,0,1-.708,4.211h35.479V361.8Zm-29.629,23.783,4.207-.034v-10.4c-1.443-.064-2.847-.129-4.207-.2ZM156.483,361.8v4.211h75.16V361.8ZM478.208,233.233H450.188V200.117q-2.026-.825-4.211-1.515v34.646h-96v-35c-1.412.276-2.813.568-4.211.863v34.119H248.883V217.019c-1.4-.042-2.8-.11-4.207-.2v16.414H147.794V209.757c-9.4,5.74-18.228,13.813-26.1,23.476h-.027v.03q-1.666,2.045-3.271,4.165h3.271V361.8H90.24q.629,2.132,1.363,4.211h30.06V401.46a32.944,32.944,0,0,0,4.619,1.056c.458.072.92.133,1.382.186h0a33.313,33.313,0,0,0,4.086.2l16.028-.174V366h96.9v35.672l4.207-.045V366.011h96.883v34.574l4.211-.045V366.011h95.982v1.806c.288-.6.583-1.2.879-1.806q1-2.06,2.018-4.211.655-1.382,1.314-2.8V237.455h28.936Q478.723,235.3,478.208,233.233ZM147.794,361.8V237.439h96.883V361.8Zm101.1,0V237.439h96.876V361.8Zm197.076,0H349.977V237.439h95.982Z" transform="translate(-86.106 -184.24)" opacity="0.1"/>
    <path id="Path_30" data-name="Path 30" d="M533.638,429.42a70.784,70.784,0,0,0-21.715-24.328,4.806,4.806,0,0,0-2.17-.818c1.064-7,.841-14.729-3.109-20.56-9.371-13.836-57.118.443-57.118.443-33.468-11.6-62.476,3.124-62.476,3.124s-37.039-5.8-53.994-1.337c-8,2.105-9.939,10.261-9.758,18.3h-.026a4.714,4.714,0,0,0-3.692,1.772c-4.51,5.634-18.133,22.987-17.762,26.338.447,4.017,15.172,56.224,14.506,81.438l205.712-2.272s3.408-50.738,11.931-78.511A4.71,4.71,0,0,0,533.638,429.42Z" transform="translate(-217.567 -295.729)" fill="#3f3d56"/>
    <path id="Path_31" data-name="Path 31" d="M267.88,333.589l8.478-16.959,7.137,33.021.083,15.327Z" transform="translate(-166.443 -196.741)" opacity="0.1"/>
    <path id="Path_32" data-name="Path 32" d="M751.651,333.589l-8.478-16.959-9.833,31.31,1.893,17.8Z" transform="translate(-455.66 -196.741)" opacity="0.1"/>
    <path id="Path_33" data-name="Path 33" d="M307.48,400.012l161.264-.882,1.787,17.849-162.43-.447Z" transform="translate(-191.049 -248.003)" fill="#3f3d56"/>
    <path id="Path_34" data-name="Path 34" d="M307.48,400.012l161.264-.882,1.787,17.849-162.43-.447Z" transform="translate(-191.049 -248.003)" opacity="0.1"/>
    <rect id="Rectangle_45" data-name="Rectangle 45" width="163.952" height="19.19" rx="9.595" transform="translate(116.378 167.239)" fill="#fff" opacity="0.1"/>
    <path id="Path_35" data-name="Path 35" d="M712.541,432.62s-.545-.757-1.189-.348a41.047,41.047,0,0,0-3.166,3.866c-.7.9-1.39,1.818-1.939,2.544-.678.894-1.136,1.515-1.136,1.515l-.273.511-1.655,3.093-1.556,2.908-.379,1.371,5.255,1.787,5.983-1.632-.257-1.109-.045-.189.049-2.552.136-7.194.064-3.237v-.379Z" transform="translate(-465.762 -329.576)" fill="#ffe09c"/>
    <path id="Path_36" data-name="Path 36" d="M699.29,475.359s5.68,2.026,8.591.966a15.539,15.539,0,0,0,3.51-1.579s1.057-.553-.379-2.355c0,0-3.677,2.253-7.156,1.367l-3.48-.89Z" transform="translate(-464.544 -354.579)" fill="#e7c4c3"/>
    <ellipse id="Ellipse_24" data-name="Ellipse 24" cx="1.859" cy="1.575" rx="1.859" ry="1.575" transform="translate(237.884 116.439) rotate(-30.37)" fill="#ff7f8e"/>
    <ellipse id="Ellipse_25" data-name="Ellipse 25" cx="1.859" cy="1.575" rx="1.859" ry="1.575" transform="translate(241.661 111.91) rotate(-30.37)" fill="#ff7f8e"/>
    <path id="Path_37" data-name="Path 37" d="M725.709,464.214a1.946,1.946,0,0,0-1.772.14,1.6,1.6,0,1,0,1.59,2.719c.061-.038.121-.076.178-.117l-.045-.189Z" transform="translate(-479.24 -349.406)" fill="#ff7f8e"/>
    <path id="Path_38" data-name="Path 38" d="M708.974,455.424a1.45,1.45,0,0,0-.969-.674l-1.655,3.094a1.935,1.935,0,0,0,1.818-.121A1.734,1.734,0,0,0,708.974,455.424Z" transform="translate(-468.931 -343.619)" fill="#ff7f8e"/>
    <path id="Path_39" data-name="Path 39" d="M717.7,443.392a1.515,1.515,0,0,0-1.291-.712c-.7.9-1.39,1.818-1.939,2.544l.023.045a1.884,1.884,0,0,0,3.207-1.878Z" transform="translate(-473.977 -336.119)" fill="#ff7f8e"/>
    <path id="Path_40" data-name="Path 40" d="M728.236,436.9a2.128,2.128,0,0,0-.557.227,1.734,1.734,0,0,0-.806,2.3,1.514,1.514,0,0,0,1.3.712Z" transform="translate(-481.567 -332.527)" fill="#ff7f8e"/>
    <path id="Path_41" data-name="Path 41" d="M706.993,467.4l-.3-.511a3.26,3.26,0,0,0,1.227-.682c.023-.023.042-.049.061-.072.379-.477.3.515.3.515S707.345,467.443,706.993,467.4Z" transform="translate(-469.142 -350.613)" fill="#94cc79"/>
    <path id="Path_42" data-name="Path 42" d="M718.793,465.308l-.3-.515a3.287,3.287,0,0,0,1.227-.682c0-.023.042-.045.061-.072.379-.473.3.515.3.515S719.145,465.349,718.793,465.308Z" transform="translate(-476.474 -349.311)" fill="#94cc79"/>
    <path id="Path_43" data-name="Path 43" d="M717.713,459.711l-.3-.515a3.287,3.287,0,0,0,1.227-.678c.019-.026.042-.049.061-.072.379-.477.3.511.3.511S718.065,459.745,717.713,459.711Z" transform="translate(-475.803 -345.835)" fill="#94cc79"/>
    <path id="Path_44" data-name="Path 44" d="M719.143,449.605l-.3-.515a3.287,3.287,0,0,0,1.227-.682c0-.023.042-.045.061-.072.379-.477.3.515.3.515S719.495,449.643,719.143,449.605Z" transform="translate(-476.692 -339.553)" fill="#94cc79"/>
    <path id="Path_45" data-name="Path 45" d="M725.919,437.388l-.3-.515a3.256,3.256,0,0,0,1.223-.682.556.556,0,0,0,.061-.072c.379-.473.3.515.3.515S726.271,437.426,725.919,437.388Z" transform="translate(-480.905 -331.963)" fill="#94cc79"/>
    <path id="Path_46" data-name="Path 46" d="M725.153,449.861l-.3-.515a3.256,3.256,0,0,0,1.227-.678c0-.027.042-.049.061-.072.379-.477.3.511.3.511S725.505,449.9,725.153,449.861Z" transform="translate(-480.426 -339.714)" fill="#94cc79"/>
    <path id="Path_47" data-name="Path 47" d="M696.57,448.743s-.727,1.893.932,1.59a6.567,6.567,0,0,0,1.465-3s3.586-7.857,4.646-8.576c0,0,4.672-6.388,5.176-6.482,0,0,.163-.621-1.469.693s-5.206,6.372-5.206,6.372l-3.408,5.555-.8,2.215Z" transform="translate(-462.755 -329.565)" fill="#e7c4c3"/>
    <path id="Path_48" data-name="Path 48" d="M696.57,448.743s-.727,1.893.932,1.59a6.567,6.567,0,0,0,1.465-3s3.586-7.857,4.646-8.576c0,0,4.672-6.388,5.176-6.482,0,0,.163-.621-1.469.693s-5.206,6.372-5.206,6.372l-3.408,5.555-.8,2.215Z" transform="translate(-462.755 -329.565)" fill="#fff" opacity="0.2"/>
    <path id="Path_49" data-name="Path 49" d="M548.08,577.248a45.536,45.536,0,0,0,2.3,6.005,55.763,55.763,0,0,0,7.675-2.189,21.584,21.584,0,0,0-1.594-2.17,7.618,7.618,0,0,0-2.17-1.666,6.005,6.005,0,0,0-2.65-.038Q549.871,577.282,548.08,577.248Z" transform="translate(-370.589 -419.612)" fill="#fbbebe"/>
    <path id="Path_50" data-name="Path 50" d="M521.909,575.012a4.82,4.82,0,0,1-2.628-2.987,9.633,9.633,0,0,0-1.965-3.574,1.17,1.17,0,0,0-.886.667,11.114,11.114,0,0,1-.526,1.037c-.417.606-1.136.9-1.685,1.416s-.856,1.3-1.427,1.817a5.725,5.725,0,0,1-2.677,1.03,17.1,17.1,0,0,0-4.2,1.552,7.04,7.04,0,0,1-1.552.7,5.734,5.734,0,0,1-1.818.061l-4.165-.3a3.321,3.321,0,0,0-1.113.046,2.029,2.029,0,0,0-1.325,2.094,3.256,3.256,0,0,0,1.318,2.245,8.888,8.888,0,0,0,2.378,1.2,70.046,70.046,0,0,0,11.185,3.2v.825a19.254,19.254,0,0,0,8.516,1.984,1.348,1.348,0,0,0,.636-.11,1.378,1.378,0,0,0,.538-.818,33.04,33.04,0,0,0,1.738-9.087,6.905,6.905,0,0,0-.178-2.336c-.227-.757.553-.435-.17-.731" transform="translate(-338.189 -414.267)" fill="#2f2e41"/>
    <path id="Path_51" data-name="Path 51" d="M641.113,538.818c-12.37.757-24.612-2.882-36.978-3.268a18.178,18.178,0,0,0-4.6.3,22.411,22.411,0,0,0-4.544,1.765c-6.645,3.09-13.514,5.649-20.379,8.205l-7.883,2.938a12.132,12.132,0,0,1-4.884,1.079c-.757-.045-1.677-.159-2.1.466-1.284,1.893-.678,4.691.17,6.815.273.689.757,1.439,1.477,1.515a4.5,4.5,0,0,0,1.515-.379c1.435-.379,2.866.583,4.343.738,1.825.193,3.518-.844,5.24-1.48,2.855-1.056,5.979-1.022,8.981-1.515,5.036-.841,9.7-3.177,14.063-5.839a16.417,16.417,0,0,1,5.248-2.472,14.254,14.254,0,0,1,6.6.757,151.941,151.941,0,0,1,15.123,5.15,69.779,69.779,0,0,0,7.906,2.885,28.6,28.6,0,0,0,17.713-1.034c1.977-.784,4.131-2.166,4.245-4.3.064-1.219-.882-2.272-1.515-3.332-.4-.67-.807-1.337-1.25-1.98C647.459,542.7,644.869,538.595,641.113,538.818Z" transform="translate(-377.378 -393.802)" fill="#2f2e41"/>
    <path id="Path_52" data-name="Path 52" d="M641.113,538.818c-12.37.757-24.612-2.882-36.978-3.268a18.178,18.178,0,0,0-4.6.3,22.411,22.411,0,0,0-4.544,1.765c-6.645,3.09-13.514,5.649-20.379,8.205l-7.883,2.938a12.132,12.132,0,0,1-4.884,1.079c-.757-.045-1.677-.159-2.1.466-1.284,1.893-.678,4.691.17,6.815.273.689.757,1.439,1.477,1.515a4.5,4.5,0,0,0,1.515-.379c1.435-.379,2.866.583,4.343.738,1.825.193,3.518-.844,5.24-1.48,2.855-1.056,5.979-1.022,8.981-1.515,5.036-.841,9.7-3.177,14.063-5.839a16.417,16.417,0,0,1,5.248-2.472,14.254,14.254,0,0,1,6.6.757,151.941,151.941,0,0,1,15.123,5.15,69.779,69.779,0,0,0,7.906,2.885,28.6,28.6,0,0,0,17.713-1.034c1.977-.784,4.131-2.166,4.245-4.3.064-1.219-.882-2.272-1.515-3.332-.4-.67-.807-1.337-1.25-1.98C647.459,542.7,644.869,538.595,641.113,538.818Z" transform="translate(-377.378 -393.802)" opacity="0.1"/>
    <path id="Path_53" data-name="Path 53" d="M610.8,570.722q2.9.988,5.861,1.821c1.1-1.81,3.165-3.071,3.635-5.138a.352.352,0,0,0-.223-.477,10.918,10.918,0,0,0-4.585-1.344c-1.272-.08-1.852,1.246-2.431,2.181C612.826,568.14,611.319,570.9,610.8,570.722Z" transform="translate(-409.56 -412.484)" fill="#fbbebe"/>
    <path id="Path_54" data-name="Path 54" d="M586.6,570.813a4.237,4.237,0,0,1-2.847-1.87c-.273-.477-.564-1.136-1.109-1.087s-.757.64-.856,1.136a32.266,32.266,0,0,1-1.594,5.5,10.326,10.326,0,0,1-3.408,4.5c-.719.5-1.515.871-2.219,1.393a14.084,14.084,0,0,1-1.893,1.416,10.106,10.106,0,0,1-1.439.538,10.057,10.057,0,0,0-2.06,1,4.1,4.1,0,0,0-1.4,1.34,1.957,1.957,0,0,0-.117,1.893,2.029,2.029,0,0,0,1.375.939,5.858,5.858,0,0,0,1.708.045c2.253-.167,4.506-.379,6.759-.568a19.76,19.76,0,0,0,2.832-.379c.5-.121.977-.276,1.469-.405a12.365,12.365,0,0,1,2.575-.379,2.272,2.272,0,0,1,.757.068c.523.17.89.689,1.431.8a2.271,2.271,0,0,0,1.019-.136,23.773,23.773,0,0,1,5.006-.522c.757-.038,1.605-.178,1.946-.841.424-.825-.28-1.749-.557-2.651a8,8,0,0,1-.235-1.73A10.53,10.53,0,0,0,592.5,576.7c-.572-1.053-1.356-2.219-.954-3.351a3.05,3.05,0,0,0,.379-1.136C591.8,570.4,587.628,571.029,586.6,570.813Z" transform="translate(-382.636 -413.896)" fill="#2f2e41"/>
    <path id="Path_55" data-name="Path 55" d="M709.706,473.971a9.682,9.682,0,0,1-4.922-4.9c-.208-.469-.379-.958-.576-1.431a10.927,10.927,0,0,0-2.946-4.093,1.424,1.424,0,0,0-1.094-.462,1.174,1.174,0,0,0-.8.863,3.43,3.43,0,0,0-.083,1.321,23.629,23.629,0,0,0,.538,3.09l.6,2.73a5.015,5.015,0,0,0,.379,1.219,4.252,4.252,0,0,0,1,1.2c.549.507,1.106,1,1.67,1.473a4.684,4.684,0,0,0,2.9,1.287,15.906,15.906,0,0,1,7.028,2.715c-.026,0,0-1.833-.046-2.041a2.694,2.694,0,0,0-.526-1.465C712.008,474.653,710.686,474.414,709.706,473.971Z" transform="translate(-464.521 -348.8)" fill="#fbbebe"/>
    <path id="Path_56" data-name="Path 56" d="M709.706,473.971a9.682,9.682,0,0,1-4.922-4.9c-.208-.469-.379-.958-.576-1.431a10.927,10.927,0,0,0-2.946-4.093,1.424,1.424,0,0,0-1.094-.462,1.174,1.174,0,0,0-.8.863,3.43,3.43,0,0,0-.083,1.321,23.629,23.629,0,0,0,.538,3.09l.6,2.73a5.015,5.015,0,0,0,.379,1.219,4.252,4.252,0,0,0,1,1.2c.549.507,1.106,1,1.67,1.473a4.684,4.684,0,0,0,2.9,1.287,15.906,15.906,0,0,1,7.028,2.715c-.026,0,0-1.833-.046-2.041a2.694,2.694,0,0,0-.526-1.465C712.008,474.653,710.686,474.414,709.706,473.971Z" transform="translate(-464.521 -348.8)" opacity="0.1"/>
    <ellipse id="Ellipse_26" data-name="Ellipse 26" cx="3.01" cy="3.025" rx="3.01" ry="3.025" transform="translate(267.366 98.216)" fill="#2f2e41"/>
    <path id="Path_57" data-name="Path 57" d="M754.339,423.7a3.281,3.281,0,0,0-2.378.345,3.22,3.22,0,0,0-.814,1.106,15.991,15.991,0,0,0-1.564,3.684c-.269,1.106-.314,2.272-.648,3.347-.617,2.014-2.2,3.714-2.378,5.816-.08.939.079,2.041-.61,2.685a3.835,3.835,0,0,1-.538.379,4.087,4.087,0,0,0-1.185,1.219,3.946,3.946,0,0,1-.841,1.162c-.613.454-1.628.405-1.931,1.109s.477,1.515.3,2.272c-.148.621-.841.9-1.318,1.329a4.519,4.519,0,0,0-1.136,2.136,7.1,7.1,0,0,1-5.755-1.435,18.231,18.231,0,0,1,.894,6.585,2.713,2.713,0,0,1-.53,2.041,35.812,35.812,0,0,1,7.069,1.231,4.9,4.9,0,0,0,3.082,0,4.965,4.965,0,0,0,1.412-1.136c1.272-1.291,2.6-2.7,2.916-4.487a25.266,25.266,0,0,0,.053-3.029,17.308,17.308,0,0,1,.757-3.7,43.749,43.749,0,0,0,1.352-7.6c.136-1.583,1.515-2.859,2.226-4.279,1.363-2.673,2.753-5.46,2.855-8.463C755.675,425.022,755.335,423.807,754.339,423.7Z" transform="translate(-485.826 -324.285)" fill="#2f2e41"/>
    <path id="Path_58" data-name="Path 58" d="M754.339,423.7a3.281,3.281,0,0,0-2.378.345,3.22,3.22,0,0,0-.814,1.106,15.991,15.991,0,0,0-1.564,3.684c-.269,1.106-.314,2.272-.648,3.347-.617,2.014-2.2,3.714-2.378,5.816-.08.939.079,2.041-.61,2.685a3.835,3.835,0,0,1-.538.379,4.087,4.087,0,0,0-1.185,1.219,3.946,3.946,0,0,1-.841,1.162c-.613.454-1.628.405-1.931,1.109s.477,1.515.3,2.272c-.148.621-.841.9-1.318,1.329a4.519,4.519,0,0,0-1.136,2.136,7.1,7.1,0,0,1-5.755-1.435,18.231,18.231,0,0,1,.894,6.585,2.713,2.713,0,0,1-.53,2.041,35.812,35.812,0,0,1,7.069,1.231,4.9,4.9,0,0,0,3.082,0,4.965,4.965,0,0,0,1.412-1.136c1.272-1.291,2.6-2.7,2.916-4.487a25.266,25.266,0,0,0,.053-3.029,17.308,17.308,0,0,1,.757-3.7,43.749,43.749,0,0,0,1.352-7.6c.136-1.583,1.515-2.859,2.226-4.279,1.363-2.673,2.753-5.46,2.855-8.463C755.675,425.022,755.335,423.807,754.339,423.7Z" transform="translate(-485.826 -324.285)" opacity="0.1"/>
    <path id="Path_59" data-name="Path 59" d="M679.583,509.353c-2.575-1.227-4.46-3.51-6.543-5.468-3.976-3.733-8.841-6.376-13.021-9.879-2.772-2.317-5.248-5.021-8.292-6.963a20.652,20.652,0,0,0-8.872-3.1,2.444,2.444,0,0,0-1.087.053,2.581,2.581,0,0,0-1.011.8,31.778,31.778,0,0,0-3.582,4.922c-5.3,8.993-12.828,16.566-19.065,24.922a1.136,1.136,0,0,0-.076,1.515l1.268,2.484c.708,1.393,1.848,3.029,3.378,2.738a3.713,3.713,0,0,0,1.772-1.136l5.68-5.441,5.971-5.71c3.5-3.343,7.054-6.766,9.337-11.041,1.78,3.09,4.945,5.112,7.115,7.952.825,1.075,1.515,2.272,2.234,3.408,1.181,1.825,2.526,3.54,3.866,5.252l6.85,8.743a13.315,13.315,0,0,0,3.169,3.215,12.194,12.194,0,0,0,5.505,1.469,73.348,73.348,0,0,0,7.739.28,13.425,13.425,0,0,0,5.767-1.038,5.229,5.229,0,0,0,3.128-4.65,6.894,6.894,0,0,0-.988-2.9C687.394,515.271,684.194,511.541,679.583,509.353Z" transform="translate(-413.898 -361.732)" fill="#2f2e41"/>
    <ellipse id="Ellipse_27" data-name="Ellipse 27" cx="2.314" cy="2.329" rx="2.314" ry="2.329" transform="translate(269.914 101.007)" fill="#e8e8f0"/>
    <path id="Path_60" data-name="Path 60" d="M791.729,417.6a4.411,4.411,0,0,1,.254,3.34,13,13,0,0,1-1.488,3.082,15.363,15.363,0,0,1-1.935,2.76c3.571.174,7.035-1.227,10.185-2.927,2.537-1.363,5.066-3.052,6.437-5.6a2.953,2.953,0,0,1-2.367-.435,8.793,8.793,0,0,1-1.81-1.689l-1.795-2.018a7.984,7.984,0,0,1-1.1-1.446,4.055,4.055,0,0,1-.473-2.34,13.288,13.288,0,0,1-2.374,1.969c-1.28.833-2.692,1.439-3.976,2.272-.454.292-1.469.757-1.208,1.359S791.377,416.961,791.729,417.6Z" transform="translate(-520.013 -316.012)" fill="#fbbebe"/>
    <path id="Path_61" data-name="Path 61" d="M791.729,417.6a4.411,4.411,0,0,1,.254,3.34,13,13,0,0,1-1.488,3.082,15.363,15.363,0,0,1-1.935,2.76c3.571.174,7.035-1.227,10.185-2.927,2.537-1.363,5.066-3.052,6.437-5.6a2.953,2.953,0,0,1-2.367-.435,8.793,8.793,0,0,1-1.81-1.689l-1.795-2.018a7.984,7.984,0,0,1-1.1-1.446,4.055,4.055,0,0,1-.473-2.34,13.288,13.288,0,0,1-2.374,1.969c-1.28.833-2.692,1.439-3.976,2.272-.454.292-1.469.757-1.208,1.359S791.377,416.961,791.729,417.6Z" transform="translate(-520.013 -316.012)" opacity="0.1"/>
    <path id="Path_62" data-name="Path 62" d="M773.964,429.786a3.014,3.014,0,0,0,0,3.491c.1.129.477.924.64.931a.633.633,0,0,0,.409-.208,27.29,27.29,0,0,0,2.272-2.7,4.994,4.994,0,0,1,2.881-1.893,6.305,6.305,0,0,1,3.972,1.238,3.8,3.8,0,0,1,1.355,1.109,3.644,3.644,0,0,1,.447,1.515,71.551,71.551,0,0,1,.4,9.621,35.422,35.422,0,0,1-.454,6.94c-.227,1.181-.568,2.336-.731,3.525a23.785,23.785,0,0,0-.14,3.162v4.423a11.258,11.258,0,0,0,.17,2.423,28.936,28.936,0,0,0,.973,2.806,18.478,18.478,0,0,1,.648,3.317l.606,4.578c.189,1.443.329,3.029-.542,4.165-.379.523-.912.943-1.31,1.465-1.515,1.946-1.019,4.729-1.643,7.111a8.9,8.9,0,0,1-2.9,4.449,4.825,4.825,0,0,1-3.828,1.367c-1.859-.345-2.976-2.272-3.484-4.116s-.689-3.824-1.787-5.369a13.786,13.786,0,0,0-3.544-2.961,6.034,6.034,0,0,1-2.756-3.593c-.121-.666-.045-1.352-.117-2.026a4.79,4.79,0,0,0-2.961-3.889c-.95-.379-2.124-.5-2.65-1.374a6.451,6.451,0,0,0,2.787-3.741,19.213,19.213,0,0,0,.678-4.722l.318-5.32c.14-2.378.2-4.733,1.253-6.869.466-.958,1.049-1.852,1.537-2.794a31.52,31.52,0,0,0,1.647-4.1c.757-2.181,1.515-4.362,2.2-6.569a13.093,13.093,0,0,1,1.2-3.059C772.048,431.195,772.889,429.987,773.964,429.786Z" transform="translate(-502.199 -327.848)" fill="#234b6d"/>
    <path id="Path_63" data-name="Path 63" d="M765.607,462.893l1.409.049.3-2.124a4.441,4.441,0,0,1,.3-1.242,7.812,7.812,0,0,1,.81-1.185c1.386-1.958,1.284-4.544,1.628-6.933a34.565,34.565,0,0,1,3.094-9.061l2.741-6.092a6.665,6.665,0,0,0,.757-3.362c.026-.943.3-4.366.329-5.3,0-.348-.757-.155-.928-.466-.341-.678-.81,1.159-1.45,1.56a3.569,3.569,0,0,0-1.265,1.84c-.591,1.534-.95,3.147-1.515,4.7a9.945,9.945,0,0,1-2.552,4.165c-.56.492-1.2.878-1.734,1.4-1.7,1.681-1.867,4.335-1.927,6.732C765.57,448.978,765.282,462.893,765.607,462.893Z" transform="translate(-505.656 -326.393)" fill="#2f2e41"/>
    <path id="Path_64" data-name="Path 64" d="M798.313,423.5a4.829,4.829,0,0,0-2.5,3.446,17.141,17.141,0,0,1-1.276,4.222c-1.719,2.987-6.1,3.858-7.3,7.088a13.818,13.818,0,0,0-.489,3.34c-.22,2.314-.981,4.544-1.2,6.861a30.207,30.207,0,0,0,.125,5.392l1.515,18.247a24.064,24.064,0,0,1-.458,8.023,7.716,7.716,0,0,0,4.6-.757c1.435-.655,2.749-1.556,4.131-2.317,2.378-1.314,5-2.242,7.084-3.991a4.083,4.083,0,0,0,.954-1.056,8.814,8.814,0,0,0,.651-2.4,13.121,13.121,0,0,1,.685-1.893,56.369,56.369,0,0,0,1.992-5.627,30.622,30.622,0,0,0,.912-3.862c.167-1.037.257-2.09.348-3.139a18.845,18.845,0,0,1,.969-4.824,38.712,38.712,0,0,0,2.238-11.556,5.926,5.926,0,0,0-.117-1.7,9.422,9.422,0,0,0-.924-1.931c-.636-1.2-1.019-2.514-1.617-3.733a18.327,18.327,0,0,0-6.259-6.577C801.149,423.893,799.71,422.95,798.313,423.5Z" transform="translate(-518.096 -324.098)" fill="#2f2e41"/>
    <path id="Path_65" data-name="Path 65" d="M707.605,492.332a11,11,0,0,1-2.912-2.215c-.379-.447-.7-.95-1.087-1.39a7.133,7.133,0,0,0-3.665-2.09,17.921,17.921,0,0,0-4.245-.413,7.788,7.788,0,0,0-2.825.341,2.836,2.836,0,0,0-1.87,2.011,3.318,3.318,0,0,0,1.424,2.969,6.869,6.869,0,0,0,2.847,1.382,23.331,23.331,0,0,0,2.571.3c5.066.53,9.587,3.287,14.01,5.8q5.85,3.313,11.923,6.187a24.156,24.156,0,0,0,.2-3.661c-.023-.913-.068-2.306-.931-2.844-1-.625-2.651-.757-3.786-1.136a61.011,61.011,0,0,1-7.63-3.086Q709.582,493.479,707.605,492.332Z" transform="translate(-459.372 -363.165)" fill="#fbbebe"/>
    <ellipse id="Ellipse_28" data-name="Ellipse 28" cx="9.076" cy="9.027" rx="9.076" ry="9.027" transform="matrix(0.254, -0.967, 0.967, 0.254, 259.573, 98.164)" fill="#fbbebe"/>
    <path id="Path_66" data-name="Path 66" d="M789.676,449.046a14.549,14.549,0,0,0-1.753,3.264c-1.113,2.295-2.863,4.263-3.737,6.664-.924,2.529-.893,5.536-2.7,7.524a2.6,2.6,0,0,0-.784,1.136,6.045,6.045,0,0,1-.095.829c-.257.719-1.439.757-1.658,1.492-.064.216-.03.451-.11.663-.182.473-.807.545-1.227.833-.879.594-.7,1.973-1.325,2.832a2.374,2.374,0,0,1-2.272.788,8.073,8.073,0,0,1-2.34-.875,2.156,2.156,0,0,0-.841-.261,1.769,1.769,0,0,0-.973.329,6.012,6.012,0,0,0-2.438,5.146,16.871,16.871,0,0,0,1.39,5.748,2.5,2.5,0,0,0,.462.856,2.014,2.014,0,0,0,2.249.167,10.255,10.255,0,0,1,2.189-.981c1.4-.254,2.764.708,4.165.629a5.855,5.855,0,0,0,2.817-1.246,15.468,15.468,0,0,0,3.786-3.211c.621-.81,1.075-1.73,1.617-2.6a30.081,30.081,0,0,1,2.272-3.029l5.2-6.369a13.733,13.733,0,0,0,1.4-1.935,13.578,13.578,0,0,0,1.09-2.908,22.348,22.348,0,0,0,1.079-5.184,20.445,20.445,0,0,0-.379-4.343,15.066,15.066,0,0,0-1.136-4.135C794.553,448.508,791.8,446.566,789.676,449.046Z" transform="translate(-506.877 -339.357)" fill="#2f2e41"/>
    <path id="Path_67" data-name="Path 67" d="M802.216,382.089a10.159,10.159,0,0,0-1.939-9.05,12.061,12.061,0,0,0-6.929-13.983,11.72,11.72,0,0,0-22.488-5.274c-3.408-1.768-7.012-1.579-8.2.5-1.242,2.173.625,5.593,4.165,7.633a11.106,11.106,0,0,0,3.609,1.337,11.738,11.738,0,0,0,6.531,6.914,12.034,12.034,0,0,0,6.21,11.037,10.057,10.057,0,0,0,1.677,4.328,7.585,7.585,0,0,0-.265.829,7.641,7.641,0,1,0,14.771,3.885,8.088,8.088,0,0,0,.151-3.449A10.262,10.262,0,0,0,802.216,382.089Z" transform="translate(-503.68 -276.452)" fill="#3f3d56"/>
    <path id="Path_68" data-name="Path 68" d="M765,355.38c1.189-2.079,4.79-2.272,8.2-.5a11.921,11.921,0,0,1,13.779-6.751c.254.064.5.144.757.227a11.441,11.441,0,0,0-3.09-1.325,11.928,11.928,0,0,0-13.779,6.751c-3.408-1.768-7.013-1.579-8.2.5-1.242,2.173.625,5.593,4.165,7.633a11.859,11.859,0,0,0,2.09.947C765.539,360.794,763.79,357.5,765,355.38Z" transform="translate(-503.687 -276.452)" opacity="0.1"/>
    <path id="Path_69" data-name="Path 69" d="M800.606,415.461a7.589,7.589,0,0,1,.265-.829,10.073,10.073,0,0,1-1.677-4.332,12.025,12.025,0,0,1-6.21-11.034,11.737,11.737,0,0,1-6.531-6.914,10.442,10.442,0,0,1-2.162-.632,11.7,11.7,0,0,0,6.35,6.437,12.033,12.033,0,0,0,6.21,11.037,10.057,10.057,0,0,0,1.677,4.328,7.592,7.592,0,0,0-.265.829,7.773,7.773,0,0,0,5.335,9.576A7.891,7.891,0,0,1,800.606,415.461Z" transform="translate(-517.36 -304.454)" opacity="0.1"/>
    <ellipse id="Ellipse_29" data-name="Ellipse 29" cx="1.39" cy="1.859" rx="1.39" ry="1.859" transform="translate(271.151 92.684) rotate(-37.22)" fill="#fbbebe"/>
    <circle id="Ellipse_30" data-name="Ellipse 30" cx="6.168" cy="6.168" r="6.168" transform="translate(157.336 2.56)" fill="#3f3d56"/>
    <ellipse id="Ellipse_31" data-name="Ellipse 31" cx="17.3" cy="22.416" rx="17.3" ry="22.416" transform="translate(159.589 0)" fill="#3f3d56"/>
    <path id="Path_70" data-name="Path 70" d="M518.094,230.54c-8.667,0-15.846-8.258-17.107-19.031a29.18,29.18,0,0,0-.2,3.385c0,12.378,7.747,22.416,17.3,22.416s17.3-10.038,17.3-22.416a29.208,29.208,0,0,0-.2-3.385C533.94,222.3,526.761,230.54,518.094,230.54Z" transform="translate(-341.205 -192.479)" opacity="0.1"/>
    <path id="Path_71" data-name="Path 71" d="M600.889,383.649c-.379,1.515-1.973,2.749-3.745,3.6-3.733,1.8-8.33,2.332-12.794,2.514a21.463,21.463,0,0,1-3.408-.064,9.793,9.793,0,0,1-5.854-2.692,1.079,1.079,0,0,1-.379-.613,1.091,1.091,0,0,1,.379-.757c2.382-2.6,6.35-4.2,10.333-5.331,3.029-.875,8.307-3.139,11.613-2.832C600.246,377.75,601.359,381.718,600.889,383.649Z" transform="translate(-387.135 -295.585)" fill="#3f3d56"/>
    <path id="Path_72" data-name="Path 72" d="M600.889,383.649c-.379,1.515-1.973,2.749-3.745,3.6-3.733,1.8-8.33,2.332-12.794,2.514a21.463,21.463,0,0,1-3.408-.064,9.793,9.793,0,0,1-5.854-2.692,1.079,1.079,0,0,1-.379-.613,1.091,1.091,0,0,1,.379-.757c2.382-2.6,6.35-4.2,10.333-5.331,3.029-.875,8.307-3.139,11.613-2.832C600.246,377.75,601.359,381.718,600.889,383.649Z" transform="translate(-387.135 -295.585)" opacity="0.1"/>
    <path id="Path_73" data-name="Path 73" d="M516.9,322.792a9.443,9.443,0,0,0-.572,7.194,12.582,12.582,0,0,0,4.222,5.975c4.835,3.881,11.469,4.415,17.652,4.366a136.573,136.573,0,0,0,16.213-1.113,19.445,19.445,0,0,0,5.259-1.219,8.094,8.094,0,0,0,4.51-4.544,5.518,5.518,0,0,0-1.515-6.013c-1.515-1.219-3.571-1.386-5.5-1.515l-11.037-.663a18.473,18.473,0,0,1,3.87-2.529c1.761-1.068,2.931-2.855,4.214-4.464a57.921,57.921,0,0,1,6.437-6.607,9.613,9.613,0,0,0,3.2,5.176c1.533,1.424,3.3,2.567,4.9,3.919,3.862,3.279,6.641,7.732,10.7,10.761a20.977,20.977,0,0,0,7.675-3.832l-1.579-2.859a1.893,1.893,0,0,0-.594-.757c-.451-.273-1.026-.133-1.545-.208-1.386-.208-1.992-1.81-2.537-3.1-1.492-3.552-4.354-6.3-6.815-9.281a46.507,46.507,0,0,1-4.752-7.031,24,24,0,0,0-2.688-4.305,6.039,6.039,0,0,0-4.37-2.272,8.442,8.442,0,0,0-4.165,1.515,110.373,110.373,0,0,0-11.3,7.7,26.387,26.387,0,0,1-5.971,3.908c-.932.379-1.893.636-2.806,1.094a18.91,18.91,0,0,0-4.032,3.378A26.792,26.792,0,0,1,516.9,322.792Z" transform="translate(-350.575 -246.14)" fill="#605d82"/>
    <path id="Path_74" data-name="Path 74" d="M556.274,250.332a11.273,11.273,0,0,1-.829,3.843,4.79,4.79,0,0,1-2.757,2.65,5.911,5.911,0,0,1-2.688.087,5.2,5.2,0,0,1-2.192-.757,4.677,4.677,0,0,1-1.738-3.222c-.189-1.242-.1-2.51-.223-3.76a20.643,20.643,0,0,0-.576-2.991c-.08-.326-.163-.651-.246-.977s-.155-.651-.227-.977-.129-.61-.182-.92-.083-.523-.11-.784a8.853,8.853,0,0,0-.379-2.3,6.9,6.9,0,0,0-.807-1.363,5.1,5.1,0,0,1-.379-.594,2.817,2.817,0,0,1-.466-1.791,1.522,1.522,0,0,1,.072-.288.889.889,0,0,1,.042-.106.863.863,0,0,0,.587-.549,1.64,1.64,0,0,0-.072-.852,5.3,5.3,0,0,0-.458-1.094c-.125-.227-.553-.64-.557-.9,0-.526,1.022-.95,1.439-1.159a8.008,8.008,0,0,1,4.112-.833,3.021,3.021,0,0,1,2.4,1.106,7.536,7.536,0,0,1,.587,2.374.66.66,0,0,0,.14.318.644.644,0,0,0,.356.163,2.12,2.12,0,0,0,.674.027h0a.963.963,0,0,0,.178-.027,2.385,2.385,0,0,0,.969-.417c.189-.053.379-.091.564-.125h.023c.757,2.378.852,4.922,1.469,7.353a17.85,17.85,0,0,1,.807,3.635v.163c0,.4-.023.8,0,1.2a3.563,3.563,0,0,0,.06.53,8.109,8.109,0,0,0,.25.833h0c.027.087.053.174.076.265a1.779,1.779,0,0,1,.045.193h0A7.146,7.146,0,0,1,556.274,250.332Z" transform="translate(-366.867 -204.388)" fill="#fbbebe"/>
    <circle id="Ellipse_32" data-name="Ellipse 32" cx="8.875" cy="8.875" r="8.875" transform="translate(169.975 12.639)" fill="#fbbebe"/>
    <path id="Path_75" data-name="Path 75" d="M616,279.834a14.567,14.567,0,0,0-2.5-6.736l.693,4.108a1.541,1.541,0,0,1-1.609-.5,4.922,4.922,0,0,1-.844-1.568,32.188,32.188,0,0,0-3.927-7.043c-5.649-.473-11.238-2.813-16.206-5.547s-9.621-6-14.529-8.845a21.305,21.305,0,0,0-2.651-1.356c-1.533-.613-3.256-.931-4.71-1.655l-.292-.155a5.861,5.861,0,0,1-.932-.621,5.04,5.04,0,0,1-.443-.413,9.745,9.745,0,0,1-1.7-2.844c-.78-1.727-1.06-3.813-1.836-5.54a5.487,5.487,0,0,1,1.193-.844h0l.189-.095a5.8,5.8,0,0,1,.958-.348c.189-.053.379-.091.564-.125h.023a5.57,5.57,0,0,1,2.628.208,12.266,12.266,0,0,1,3.317,2.045,54.113,54.113,0,0,1,4.854,3.847c.856.822,1.64,1.723,2.56,2.469a20.316,20.316,0,0,0,2.419,1.605l14.971,8.917c1.689,1,3.381,2.011,5.032,3.078,2.51,1.617,4.922,3.37,7.346,5.123l4.275,3.1a4.686,4.686,0,0,1,1.212,1.136,4.068,4.068,0,0,1,.534,1.639A15,15,0,0,1,616,279.834Z" transform="translate(-380.798 -209.96)" fill="#fbbebe"/>
    <path id="Path_76" data-name="Path 76" d="M539.179,262.678c-.6,2.685-3.313,4.309-4.733,6.668-1.764,2.927-1.045,6.331-.379,9.686l-3.631,3.128c-.666.572-1.337,1.136-2.052,1.655a27.6,27.6,0,0,1-3.283,1.893l-3.211,1.651a15.393,15.393,0,0,1-3.146,1.333,12.131,12.131,0,0,1-6.437-.462,2.872,2.872,0,0,1-.7-.288,1.155,1.155,0,0,1-.333-.3,1.852,1.852,0,0,1-.212-1.215,57.112,57.112,0,0,1,1.927-10.371,30.164,30.164,0,0,1,4.407-10.875,31.965,31.965,0,0,1,3.786-5.5,8.834,8.834,0,0,0,1.757-2.272c.534-1.219.326-2.616.435-3.942a8.172,8.172,0,0,1,.78-2.874h0a8.237,8.237,0,0,1,.833-1.378c.148.341.292.682.439,1.019l.284.666c.125.284.246.572.379.856q.53,1.219,1.053,2.442a10.224,10.224,0,0,0,1.594,2.844,3.105,3.105,0,0,0,5.316-.409,10.057,10.057,0,0,0,1.087-2.874,9.146,9.146,0,0,0,.121-3.745,46.211,46.211,0,0,0-2.12-7.069,7.129,7.129,0,0,1-.515-2.329,1.3,1.3,0,0,1,.027-.269v-.068a5.8,5.8,0,0,1,.958-.348c.189-.053.379-.091.564-.125q.977,5.3,1.958,10.579a1.465,1.465,0,0,0,.049.25c.091.507.186,1.011.292,1.515s.2.913.31,1.363h0c.038.151.08.307.121.458h0c.117.417.246.825.379,1.234C538.2,257.672,539.744,260.137,539.179,262.678Z" transform="translate(-347.569 -210.058)" fill="#eca86d"/>
    <path id="Path_77" data-name="Path 77" d="M680.5,385.985a3.081,3.081,0,0,0,.292,1.515c.553,1.015,1.893,1.246,3.029,1.34a89.973,89.973,0,0,0,20.208-.613,2.367,2.367,0,0,0,1.03-.322c.95-.666.379-2.291-.674-2.813s-2.272-.379-3.408-.617a10.833,10.833,0,0,1-3.2-1.386q-3.465-1.992-6.816-4.165c-1.337-.859-2.916-1.776-4.419-1.265C682.461,379.037,680.47,381.589,680.5,385.985Z" transform="translate(-452.865 -295.626)" fill="#2f2e41"/>
    <path id="Path_78" data-name="Path 78" d="M503.325,253.442h0l-.034.186-.057.31c-.186.954-.417,1.893-.678,2.851-.723,2.609-1.689,5.18-2.65,7.709l-7.728,20.371c-.651,1.711-1.3,3.408-2.037,5.1-.246.557-.5,1.136-.757,1.689a23.44,23.44,0,0,0-2.064,6.3,13.253,13.253,0,0,0-.095,4.32,4.384,4.384,0,0,0,2.5,3.332c.659.258,1.6.6,1.42,1.287-.095.379-.523.56-.909.621a3.48,3.48,0,0,1-2.851-.822c-.719-.636-1.276-1.632-2.234-1.738a3.88,3.88,0,0,0-1.893.6c-2.48,1.136-5.365.341-7.97-.466a2.794,2.794,0,0,1,2.313-1.958,18.933,18.933,0,0,1,3.215-.091,1.673,1.673,0,0,0,.977-.254,1.8,1.8,0,0,0,.542-.886,37.774,37.774,0,0,0,1.533-6.285c.348-2.234.492-4.5.984-6.7.379-1.719.977-3.385,1.484-5.074a106.532,106.532,0,0,0,2.42-10.557,37.216,37.216,0,0,0,.682-4.476c.087-1.25.045-2.507.167-3.749a29.062,29.062,0,0,1,1.007-4.778c.462-1.708.92-3.408,1.382-5.112.682-2.522,1.412-5.138,3.139-7.1a6.668,6.668,0,0,1,4.794-2.291,4.585,4.585,0,0,1,1.018.11l.167.042a4.015,4.015,0,0,1,1.041.432c.534-.341.8-.22,1.159.3a3.359,3.359,0,0,1,.42,1.817A25.191,25.191,0,0,1,503.325,253.442Z" transform="translate(-325.36 -213.78)" fill="#fbbebe"/>
    <path id="Path_79" data-name="Path 79" d="M544.34,255.142l-.023.023-.121.121-1.208,1.208L542.393,254l-2.033-8.535a4.587,4.587,0,0,1,1.019.11,1.508,1.508,0,0,1,.072-.288l.095.329.689,2.344,1.306,4.449.216.735h0Z" transform="translate(-365.792 -213.469)" fill="#eca86d"/>
    <rect id="Rectangle_46" data-name="Rectangle 46" width="19.258" height="12.037" rx="6.019" transform="translate(170.615 8.425)" fill="#3f3d56"/>
    <circle id="Ellipse_33" data-name="Ellipse 33" cx="6.168" cy="6.168" r="6.168" transform="translate(184.829 2.56)" fill="#3f3d56"/>
    <path id="Path_80" data-name="Path 80" d="M582.987,167.981h-.227a6.168,6.168,0,0,1,0,12.325h.227a6.168,6.168,0,1,0,0-12.336Z" transform="translate(-392.137 -165.426)" opacity="0.1"/>
    <path id="Path_81" data-name="Path 81" d="M501.018,167.981h.227a6.168,6.168,0,0,0,0,12.325h-.227a6.168,6.168,0,1,1,0-12.336Z" transform="translate(-337.514 -165.426)" opacity="0.1"/>
    <path id="Path_82" data-name="Path 82" d="M552.666,209.142h-15.63a1.806,1.806,0,0,1-1.806-1.8v1.2a1.81,1.81,0,0,0,1.806,1.806h15.646a1.81,1.81,0,0,0,1.806-1.806v-1.2a1.81,1.81,0,0,1-1.821,1.8Z" transform="translate(-362.604 -189.888)" opacity="0.1"/>
    <path id="Path_83" data-name="Path 83" d="M702.369,346.111s.977.17,1.136-.621a44.147,44.147,0,0,0-.5-5.24c-.148-1.2-.307-2.389-.436-3.343-.155-1.17-.269-1.976-.269-1.976l-.178-.591-1.053-3.536-.992-3.332-.731-1.31-5.259,2.56-3.271,5.653,1.015.64.178.114,1.867,1.954,5.233,5.49,2.355,2.473.276.288Z" transform="translate(-459.281 -263.718)" fill="#ffe09c"/>
    <path id="Path_84" data-name="Path 84" d="M696.241,320.22s-5.763,2.7-7.149,5.642a16.241,16.241,0,0,0-1.458,3.786s-.379,1.2,2.011,1.5c0,0,1.087-4.411,4.347-6.327l3.264-1.912Z" transform="translate(-457.288 -260.027)" fill="#e7c4c3"/>
    <ellipse id="Ellipse_34" data-name="Ellipse 34" cx="1.966" cy="1.665" rx="1.966" ry="1.665" transform="translate(236.728 68.016) rotate(-74.995)" fill="#ff7f8e"/>
    <ellipse id="Ellipse_35" data-name="Ellipse 35" cx="1.958" cy="1.658" rx="1.958" ry="1.658" transform="translate(236.12 74.871) rotate(-75.08)" fill="#ff7f8e"/>
    <path id="Path_85" data-name="Path 85" d="M695.569,348.783a2.052,2.052,0,0,0,1.223-1.42,1.681,1.681,0,1,0-3.2-.856,1.461,1.461,0,0,0-.049.216l.178.114Z" transform="translate(-460.971 -275.421)" fill="#ff7f8e"/>
    <path id="Path_86" data-name="Path 86" d="M715.556,342.172a1.514,1.514,0,0,0,1.223-.216l-1.053-3.536a2.037,2.037,0,0,0-1.272,1.435A1.822,1.822,0,0,0,715.556,342.172Z" transform="translate(-473.919 -271.336)" fill="#ff7f8e"/>
    <path id="Path_87" data-name="Path 87" d="M717.169,358.227a1.6,1.6,0,0,0,1.5-.424c-.148-1.2-.307-2.389-.435-3.343h-.049a1.828,1.828,0,0,0-2.109,1.465A1.808,1.808,0,0,0,717.169,358.227Z" transform="translate(-474.923 -281.272)" fill="#ff7f8e"/>
    <path id="Path_88" data-name="Path 88" d="M715.056,371.16a2.313,2.313,0,0,0,.246-.587,1.822,1.822,0,0,0-1.1-2.317,1.6,1.6,0,0,0-1.515.432Z" transform="translate(-472.87 -289.847)" fill="#ff7f8e"/>
    <path id="Path_89" data-name="Path 89" d="M711.393,334.18l.606.163a3.467,3.467,0,0,0-.413,1.42.945.945,0,0,0,0,.1c.08.625-.606-.163-.606-.163S711.1,334.415,711.393,334.18Z" transform="translate(-471.808 -268.701)" fill="#94cc79"/>
    <path id="Path_90" data-name="Path 90" d="M704.109,344.5l.61.163a3.382,3.382,0,0,0-.413,1.416.945.945,0,0,0,0,.1c.08.625-.606-.163-.606-.163S703.814,344.731,704.109,344.5Z" transform="translate(-467.284 -275.114)" fill="#94cc79"/>
    <path id="Path_91" data-name="Path 91" d="M709.083,347.91l.606.159a3.467,3.467,0,0,0-.413,1.42.856.856,0,0,0,0,.1c.083.625-.606-.163-.606-.163S708.795,348.141,709.083,347.91Z" transform="translate(-470.373 -277.233)" fill="#94cc79"/>
    <path id="Path_92" data-name="Path 92" d="M715.489,356.52l.61.159a3.407,3.407,0,0,0-.413,1.42.856.856,0,0,0,0,.1c.08.625-.606-.163-.606-.163S715.2,356.751,715.489,356.52Z" transform="translate(-474.355 -282.583)" fill="#94cc79"/>
    <path id="Path_93" data-name="Path 93" d="M719.473,370.69l.606.163a3.464,3.464,0,0,0-.413,1.416.778.778,0,0,0,0,.1c.083.625-.606-.159-.606-.159S719.177,370.921,719.473,370.69Z" transform="translate(-476.828 -291.387)" fill="#94cc79"/>
    <path id="Path_94" data-name="Path 94" d="M710.805,360.78l.606.163a3.407,3.407,0,0,0-.405,1.435.779.779,0,0,0,0,.1c.079.625-.606-.159-.606-.159S710.514,361.011,710.805,360.78Z" transform="translate(-471.448 -285.23)" fill="#94cc79"/>
    <path id="Path_95" data-name="Path 95" d="M712.243,319.829s-.867-1.965-1.893-.5a6.952,6.952,0,0,0,1.136,3.332s3.139,8.538,2.878,9.845c0,0,1.238,8.247.931,8.709,0,0,.341.583.583-1.609s-.822-8.633-.822-8.633l-1.556-6.694-1.041-2.272Z" transform="translate(-471.417 -259.136)" fill="#e7c4c3"/>
    <path id="Path_96" data-name="Path 96" d="M712.243,319.829s-.867-1.965-1.893-.5a6.952,6.952,0,0,0,1.136,3.332s3.139,8.538,2.878,9.845c0,0,1.238,8.247.931,8.709,0,0,.341.583.583-1.609s-.822-8.633-.822-8.633l-1.556-6.694-1.041-2.272Z" transform="translate(-471.417 -259.136)" fill="#fff" opacity="0.2"/>
    <path id="Path_97" data-name="Path 97" d="M687.85,325.927s1.556,4.483,2.98,3.29l-1.136-5.858Z" transform="translate(-457.436 -261.978)" fill="#fbbebe"/>
    <path id="Path_98" data-name="Path 98" d="M395.224,378.77s13.726,23.124,16.933,26.213c0,0,13.714,14.237,6.744,13.252-.511-.072-10.549-8.557-11.136-9.951S388.2,382.238,388.2,382.238l2.707-2.491Z" transform="translate(-271.246 -296.408)" fill="#a0616a"/>
    <path id="Path_99" data-name="Path 99" d="M395.224,378.77s13.726,23.124,16.933,26.213c0,0,13.714,14.237,6.744,13.252-.511-.072-10.549-8.557-11.136-9.951S388.2,382.238,388.2,382.238l2.707-2.491Z" transform="translate(-271.246 -296.408)" opacity="0.1"/>
    <path id="Path_100" data-name="Path 100" d="M434.966,572.808s-4.392,5.49-2.56,7.686,10.962,6.4,13.908,6.221c3.112-.182,13.544.379,13.911-4.392,0,0,.731-2.2-8.784-2.563s-6.592-10.25-6.592-10.25Z" transform="translate(-298.436 -414.926)" fill="#2f2e41"/>
    <path id="Path_101" data-name="Path 101" d="M300.507,452.306s-4.392,15.006,8.784,17.569l14.275-.731s20.132-4.029,25.626-1.1c0,0,2.2.379,1.462,3.294s1.1,22.7,1.1,22.7v6.588s12.446,0,13.911-1.465c0,0-1.1-5.858,0-10.6s-1.829-19.769-1.829-19.769l-.292-9.015a6.293,6.293,0,0,0-3.321-5.422,4.922,4.922,0,0,0-2.245-.572s-24.892-4.025-33.676-3.294S300.507,452.306,300.507,452.306Z" transform="translate(-216.32 -340.913)" fill="#605d82"/>
    <path id="Path_102" data-name="Path 102" d="M355.6,328.79s6.588,7.686,7.319,10.25,8.8,9.14,8.8,9.14-5.858,4.392-4.76,6.588-7.686-7.319-7.686-7.319l-10.273-15Z" transform="translate(-246.889 -265.352)" fill="#234b6d"/>
    <path id="Path_103" data-name="Path 103" d="M355.6,328.79s6.588,7.686,7.319,10.25,8.8,9.14,8.8,9.14-5.858,4.392-4.76,6.588-7.686-7.319-7.686-7.319l-10.273-15Z" transform="translate(-246.889 -265.352)" opacity="0.1"/>
    <path id="Path_104" data-name="Path 104" d="M350.356,300.259s-3.294,10.6-3.294,14.642-13.911-1.1-13.544-3.294,8.054-10.25,8.421-13.544S350.356,300.259,350.356,300.259Z" transform="translate(-237.265 -245.606)" fill="#a0616a"/>
    <path id="Path_105" data-name="Path 105" d="M317.563,324.552s-12.813-3.294-14.642,15.377,1.462,20.863-4.029,32.211,37.338,1.465,37.338,1.465-2.2-2.563-9.152-1.465l-3.294-9.883s-1.1-4.392,5.127-4.392,3.294-12.813,3.294-12.813-3.294-10.981-5.127-12.079S321.967,325.287,317.563,324.552Z" transform="translate(-215.452 -262.58)" opacity="0.1"/>
    <path id="Path_106" data-name="Path 106" d="M317.563,322.632S304.75,319.338,302.921,338s1.462,20.867-4.029,32.215,37.338,1.465,37.338,1.465-2.2-2.563-9.152-1.465l-3.294-9.883s-1.087-4.385,5.138-4.385,3.294-12.813,3.294-12.813-3.294-10.981-5.127-12.079S321.967,323.359,317.563,322.632Z" transform="translate(-215.452 -261.387)" fill="#eca86d"/>
    <circle id="Ellipse_36" data-name="Ellipse 36" cx="12.079" cy="12.079" r="12.079" transform="translate(97.73 37.084)" fill="#a0616a"/>
    <path id="Path_107" data-name="Path 107" d="M283.83,260.528l30.356,18.145,28.243-26.316L308.76,240.63,284.53,257.124Z" transform="translate(-176.353 -149.517)" fill="#dadae5"/>
    <path id="Path_108" data-name="Path 108" d="M356.4,151.458l-9.3,28.557,33.741,10.89,14.18-40.3Z" transform="translate(-215.667 -93.583)" fill="none"/>
    <path id="Path_109" data-name="Path 109" d="M362.937,157.58l-9.447,28.1,31.321,9.008,13.37-37.993Z" transform="translate(-219.637 -97.361)" fill="#dadae5"/>
    <path id="Path_110" data-name="Path 110" d="M371.78,152.168l2.563,2.344,35.244-.89.81-2.3Z" transform="translate(-231.002 -94.024)" opacity="0.03"/>
    <path id="Path_111" data-name="Path 111" d="M347.21,182.113l9.3-28.553,2.563,2.344-9.209,27.391Z" transform="translate(-215.735 -95.416)" opacity="0.03"/>
    <path id="Path_112" data-name="Path 112" d="M371.67,151.458l2.563,2.344,35.244-.89.81-2.3Z" transform="translate(-230.934 -93.583)" fill="#eff0f4"/>
    <path id="Path_113" data-name="Path 113" d="M347.1,181.407l9.3-28.557,2.563,2.344-9.209,27.391Z" transform="translate(-215.667 -94.975)" fill="#eff0f4"/>
    <path id="Path_114" data-name="Path 114" d="M371.67,151.458l3.919,3.665,35.248-.89-.549-3.624Z" transform="translate(-230.934 -93.583)" opacity="0.03"/>
    <path id="Path_115" data-name="Path 115" d="M347.1,181.407l9.3-28.557,3.919,3.665-9.209,27.391Z" transform="translate(-215.667 -94.975)" opacity="0.03"/>
    <path id="Path_116" data-name="Path 116" d="M347.26,229.33l.856,5.434,33.877,11.761-.988-6.3Z" transform="translate(-215.766 -142.496)" opacity="0.03"/>
    <path id="Path_117" data-name="Path 117" d="M281.12,247.187l25.043-17.857,1.094,5.43-24.6,18.3Z" transform="translate(-174.67 -142.496)" opacity="0.03"/>
    <path id="Path_118" data-name="Path 118" d="M347.1,228.27l.735,4.684,33.877,11.761-.871-5.555Z" transform="translate(-215.667 -141.837)" fill="#eff0f4"/>
    <path id="Path_119" data-name="Path 119" d="M280.95,246.123,306,228.27l.973,4.68-24.6,18.3Z" transform="translate(-174.564 -141.837)" fill="#eff0f4"/>
    <path id="Path_120" data-name="Path 120" d="M347.1,228.27l.735,4.684,33.877,11.761-.871-5.555Z" transform="translate(-215.667 -141.837)" opacity="0.03"/>
    <path id="Path_121" data-name="Path 121" d="M280.95,246.123,306,228.27l.973,4.68-24.6,18.3Z" transform="translate(-174.564 -141.837)" opacity="0.03"/>
    <path id="Path_122" data-name="Path 122" d="M280.95,275.42l1.132,6.751,30.272,18.088-.746-6.948Z" transform="translate(-174.564 -171.134)" fill="#cccad6"/>
    <path id="Path_123" data-name="Path 123" d="M396.442,419.932s-.526,1,.276,1.465a51.219,51.219,0,0,0,5.865,1.272c1.348.25,2.7.492,3.786.682,1.325.235,2.242.379,2.242.379h.7l4.211.079,3.961.076,1.677-.345-.966-6.581-5.013-5.509-1.049.886-.178.151-2.756,1.34-7.777,3.786-3.5,1.7-.409.2Z" transform="translate(-276.262 -316.714)" fill="#ffe09c"/>
    <path id="Path_124" data-name="Path 124" d="M448.451,421.332s-.943-7.194-3.661-9.716a18.015,18.015,0,0,0-3.608-2.893s-1.17-.829-2.321,1.67c0,0,4.419,2.7,5.373,6.91l.95,4.207Z" transform="translate(-302.724 -314.938)" fill="#e7c4c3"/>
    <ellipse id="Ellipse_37" data-name="Ellipse 37" cx="1.893" cy="2.234" rx="1.893" ry="2.234" transform="translate(135.628 103.018) rotate(-57.43)" fill="#ff7f8e"/>
    <ellipse id="Ellipse_38" data-name="Ellipse 38" cx="1.893" cy="2.234" rx="1.893" ry="2.234" transform="translate(128.721 101.455) rotate(-57.43)" fill="#ff7f8e"/>
    <path id="Path_125" data-name="Path 125" d="M430.4,415.317a2.329,2.329,0,0,0,1.136,1.821,1.912,1.912,0,1,0,2.033-3.173,2.52,2.52,0,0,0-.22-.125l-.178.151Z" transform="translate(-297.467 -318.199)" fill="#ff7f8e"/>
    <path id="Path_126" data-name="Path 126" d="M430.77,438.921a1.742,1.742,0,0,0-.193,1.4l4.211.08a2.31,2.31,0,0,0-1.136-1.893A2.082,2.082,0,0,0,430.77,438.921Z" transform="translate(-297.534 -333.287)" fill="#ff7f8e"/>
    <path id="Path_127" data-name="Path 127" d="M412.655,435.1a1.81,1.81,0,0,0-.053,1.772c1.348.25,2.7.492,3.786.682l.034-.049a2.266,2.266,0,0,0-3.767-2.4Z" transform="translate(-286.28 -330.917)" fill="#ff7f8e"/>
    <path id="Path_128" data-name="Path 128" d="M400.62,429.479a2.687,2.687,0,0,0,.553.47,2.092,2.092,0,0,0,2.9-.379,1.806,1.806,0,0,0,.049-1.78Z" transform="translate(-278.963 -326.867)" fill="#ff7f8e"/>
    <path id="Path_129" data-name="Path 129" d="M444.952,437.652l-.379.6a3.9,3.9,0,0,0-1.4-.935l-.11-.026c-.708-.129.379-.6.379-.6S444.8,437.254,444.952,437.652Z" transform="translate(-305.189 -332.397)" fill="#94cc79"/>
    <path id="Path_130" data-name="Path 130" d="M436.265,426.172l-.379.606a3.9,3.9,0,0,0-1.4-.939l-.11-.027c-.7-.125.379-.6.379-.6S436.117,425.774,436.265,426.172Z" transform="translate(-299.792 -325.264)" fill="#94cc79"/>
    <path id="Path_131" data-name="Path 131" d="M430.842,430.422l-.379.6a3.9,3.9,0,0,0-1.4-.935l-.11-.026c-.708-.129.379-.6.379-.6S430.691,430.017,430.842,430.422Z" transform="translate(-296.422 -327.904)" fill="#94cc79"/>
    <path id="Path_132" data-name="Path 132" d="M419.272,434.422l-.379.606a3.9,3.9,0,0,0-1.4-.939l-.11-.026c-.708-.125.379-.6.379-.6S419.121,434.009,419.272,434.422Z" transform="translate(-289.233 -330.39)" fill="#94cc79"/>
    <path id="Path_133" data-name="Path 133" d="M402.509,433.822l-.379.606a3.923,3.923,0,0,0-1.4-.939l-.11-.027c-.7-.125.379-.6.379-.6S402.354,433.42,402.509,433.822Z" transform="translate(-278.815 -330.017)" fill="#94cc79"/>
    <path id="Path_134" data-name="Path 134" d="M416.262,427.816l-.379.6a3.9,3.9,0,0,0-1.4-.939l-.11-.026c-.708-.125.379-.6.379-.6S416.111,427.414,416.262,427.816Z" transform="translate(-287.362 -326.283)" fill="#94cc79"/>
    <path id="Path_135" data-name="Path 135" d="M420.944,440.49s2.435-.265,1.193-1.867a7.9,7.9,0,0,0-4.006.068s-10.363.462-11.708-.28c0,0-9.39-1.515-9.769-1.992,0,0-.757.167,1.545,1.189s9.667,2.09,9.667,2.09l7.811.621,2.81-.348Z" transform="translate(-276.425 -332.229)" fill="#e7c4c3"/>
    <path id="Path_136" data-name="Path 136" d="M420.944,440.49s2.435-.265,1.193-1.867a7.9,7.9,0,0,0-4.006.068s-10.363.462-11.708-.28c0,0-9.39-1.515-9.769-1.992,0,0-.757.167,1.545,1.189s9.667,2.09,9.667,2.09l7.811.621,2.81-.348Z" transform="translate(-276.425 -332.229)" fill="#fff" opacity="0.2"/>
    <path id="Path_137" data-name="Path 137" d="M441.317,436.9a2.332,2.332,0,0,0,.352,2.109,1.918,1.918,0,1,0,3.086-2.189c-.049-.068-.1-.136-.155-.2l-.227.076Z" transform="translate(-304.181 -332.353)" fill="#ff7f8e"/>
    <path id="Path_138" data-name="Path 138" d="M361.92,281.884l28.129-24.854.863,5.487-28.247,26.316Z" transform="translate(-224.875 -159.708)" fill="#cccad6"/>
    <path id="Path_139" data-name="Path 139" d="M439.86,192.321l-3.65-1.416,14.18-40.3,2.7,1.908Z" transform="translate(-271.036 -93.583)" fill="#cccad6"/>
    <g id="Group_45" data-name="Group 45" transform="translate(133.512 154.584)" opacity="0.1">
      <path id="Path_140" data-name="Path 140" d="M464.892,572.4a12.649,12.649,0,0,1,.42-2.885l-.185.064A12.873,12.873,0,0,0,464.892,572.4Z" transform="translate(-452.408 -569.51)" fill="#fff"/>
      <path id="Path_141" data-name="Path 141" d="M446.3,601.082c-2.946.174-12.079-4.029-13.908-6.225a1.92,1.92,0,0,1-.424-1.037,2.3,2.3,0,0,0,.424,1.772c1.829,2.2,10.962,6.4,13.908,6.221,3.112-.182,13.544.379,13.911-4.392a.6.6,0,0,0-.049-.379C459.317,601.427,449.328,600.912,446.3,601.082Z" transform="translate(-431.929 -584.615)" fill="#fff"/>
    </g>
    <path id="Path_142" data-name="Path 142" d="M466.642,365.8s.651-.757.061-1.3a44.793,44.793,0,0,0-4.752-2.272c-1.1-.485-2.211-.962-3.094-1.34l-1.836-.784-.594-.151-3.578-.913-3.366-.86-1.515-.042-.507,5.827,3.177,5.71,1.068-.545.185-.095,2.624-.591,7.414-1.651,3.328-.757.379-.087Z" transform="translate(-308.068 -283.589)" fill="#ffe09c"/>
    <path id="Path_143" data-name="Path 143" d="M442.02,357.67s-.64,6.331,1.174,9.031a16.269,16.269,0,0,0,2.5,3.2s.833.939,2.321-.962c0,0-3.234-3.2-3.2-6.978l.03-3.786Z" transform="translate(-304.62 -283.297)" fill="#e7c4c3"/>
    <ellipse id="Ellipse_39" data-name="Ellipse 39" cx="1.658" cy="1.958" rx="1.658" ry="1.958" transform="matrix(0.717, -0.697, 0.697, 0.717, 140.234, 78.82)" fill="#ff7f8e"/>
    <ellipse id="Ellipse_40" data-name="Ellipse 40" cx="1.658" cy="1.958" rx="1.658" ry="1.958" transform="matrix(0.717, -0.697, 0.697, 0.717, 145.819, 81.538)" fill="#ff7f8e"/>
    <path id="Path_144" data-name="Path 144" d="M460.233,381.372a2.048,2.048,0,0,0-.591-1.78,1.844,1.844,0,0,0-2.556-.246,1.822,1.822,0,0,0,.178,2.56,1.993,1.993,0,0,0,.159.151l.186-.095Z" transform="translate(-313.772 -296.511)" fill="#ff7f8e"/>
    <path id="Path_145" data-name="Path 145" d="M464.8,362.595a1.515,1.515,0,0,0,.443-1.162l-3.578-.913a2.029,2.029,0,0,0,.579,1.829A1.819,1.819,0,0,0,464.8,362.595Z" transform="translate(-316.871 -285.068)" fill="#ff7f8e"/>
    <path id="Path_146" data-name="Path 146" d="M479.452,368.235a1.6,1.6,0,0,0,.405-1.515c-1.1-.485-2.211-.962-3.094-1.34l-.042.034a1.991,1.991,0,0,0,2.73,2.821Z" transform="translate(-325.974 -288.088)" fill="#ff7f8e"/>
    <path id="Path_147" data-name="Path 147" d="M488.905,377.074a2.16,2.16,0,0,0-.379-.511,1.822,1.822,0,0,0-2.552-.246,1.583,1.583,0,0,0-.4,1.515Z" transform="translate(-331.717 -294.625)" fill="#ff7f8e"/>
    <path id="Path_148" data-name="Path 148" d="M455,362.685l.451-.435a3.45,3.45,0,0,0,1.007,1.079l.087.045c.579.25-.451.435-.451.435S455.064,363.056,455,362.685Z" transform="translate(-312.753 -286.143)" fill="#94cc79"/>
    <path id="Path_149" data-name="Path 149" d="M460.16,374.279l.447-.439a3.446,3.446,0,0,0,1.007,1.083l.087.042c.579.254-.451.439-.451.439S460.205,374.628,460.16,374.279Z" transform="translate(-315.959 -293.345)" fill="#94cc79"/>
    <path id="Path_150" data-name="Path 150" d="M465.63,371.709l.451-.439a3.445,3.445,0,0,0,1.007,1.083l.087.042c.579.254-.451.439-.451.439S465.679,372.08,465.63,371.709Z" transform="translate(-319.358 -291.748)" fill="#94cc79"/>
    <path id="Path_151" data-name="Path 151" d="M476.31,370.629l.451-.439a3.469,3.469,0,0,0,1,1.083l.091.045c.576.25-.451.435-.451.435S476.359,371,476.31,370.629Z" transform="translate(-325.994 -291.077)" fill="#94cc79"/>
    <path id="Path_152" data-name="Path 152" d="M490.52,374.489l.451-.439a3.409,3.409,0,0,0,1,1.083l.091.042c.576.254-.451.439-.451.439S490.569,374.856,490.52,374.489Z" transform="translate(-334.823 -293.475)" fill="#94cc79"/>
    <path id="Path_153" data-name="Path 153" d="M477.56,376.845l.451-.435a3.449,3.449,0,0,0,1.007,1.079.378.378,0,0,0,.087.045c.579.25-.451.439-.451.439S477.609,377.216,477.56,376.845Z" transform="translate(-326.771 -294.941)" fill="#94cc79"/>
    <path id="Path_154" data-name="Path 154" d="M443.338,354.064s-2.132-.261-1.393,1.356a6.967,6.967,0,0,0,3.434.757s8.94,1.689,9.939,2.59c0,0,7.713,3.173,7.951,3.665,0,0,.678,0-1.079-1.329s-7.827-3.733-7.827-3.733l-6.543-2.1L445.353,355Z" transform="translate(-304.544 -281.047)" fill="#e7c4c3"/>
    <path id="Path_155" data-name="Path 155" d="M443.338,354.064s-2.132-.261-1.393,1.356a6.967,6.967,0,0,0,3.434.757s8.94,1.689,9.939,2.59c0,0,7.713,3.173,7.951,3.665,0,0,.678,0-1.079-1.329s-7.827-3.733-7.827-3.733l-6.543-2.1L445.353,355Z" transform="translate(-304.544 -281.047)" fill="#fff" opacity="0.2"/>
    <path id="Path_156" data-name="Path 156" d="M390.222,367.332a11,11,0,0,0,2.912-2.215c.379-.447.7-.95,1.087-1.39a7.133,7.133,0,0,1,3.665-2.09,17.924,17.924,0,0,1,4.245-.413,7.789,7.789,0,0,1,2.825.341,2.836,2.836,0,0,1,1.87,2.011,3.317,3.317,0,0,1-1.424,2.969,6.868,6.868,0,0,1-2.847,1.382,23.346,23.346,0,0,1-2.571.3c-5.066.53-9.587,3.287-14.01,5.8-3.9,2.207-6.111,2.105-10.159,4.021-.159-1.212-1.992-.273-1.965-1.5.023-.913.068-2.306.931-2.844,1-.625,2.651-.757,3.786-1.136a61,61,0,0,0,7.63-3.086Q388.245,368.479,390.222,367.332Z" transform="translate(-262.329 -285.496)" fill="#a0616a"/>
    <path id="Path_157" data-name="Path 157" d="M326.95,345.22l19.413,17.569s3.661-7.319,4.76-7.319-13.177-21.583-13.177-21.583-3.661-4.392-5.858-2.2S323.289,332.406,326.95,345.22Z" transform="translate(-232.514 -266.773)" opacity="0.1"/>
    <path id="Path_158" data-name="Path 158" d="M325.977,343.278l19.4,17.569s3.661-7.323,4.76-7.323-13.181-21.583-13.181-21.583-3.661-4.4-5.858-2.2S322.316,330.465,325.977,343.278Z" transform="translate(-231.909 -265.562)" fill="#234b6d"/>
    <path id="Path_159" data-name="Path 159" d="M316.967,256.286a5.831,5.831,0,0,0,1.019-1.59c1.674-3.786-.981-8.542-5.513-9.845-2.272-.663-4.816-.53-7.084-1.234a34.072,34.072,0,0,1-5.036-2.465,21.234,21.234,0,0,0-10.129-2.173c-3.427.121-7.153,1.325-8.557,3.972-2.052,3.855,1.723,8.709-.564,12.461-1.681,2.757-5.759,3.571-9.14,4.767a24.946,24.946,0,0,0-9.33,5.782c-2.65,2.651-4.544,6.285-3.211,9.572.776,1.927,2.529,3.434,3.923,5.1a16.282,16.282,0,0,1,1.019,19.8,9.625,9.625,0,0,0-1.681,2.908c-.644,2.529,1.954,5.074,4.956,5.566a11.8,11.8,0,0,0,8.455-2.283,15.2,15.2,0,0,0,5.04-5.861c2.775-5.884.825-12.5.549-18.83a2.871,2.871,0,0,1,.519-2.12c.8-.867,2.317-.844,3.612-.958a10.04,10.04,0,0,0,7.857-4.763c2.715-4.983-.447-11.946,4.3-15.695C303.938,253.67,312.534,261.129,316.967,256.286Z" transform="translate(-190.956 -209.539)" fill="#3f3d56"/>
    <path id="Path_160" data-name="Path 160" d="M319.5,254.47h-.038a6.872,6.872,0,0,1,1.386,7.217,5.83,5.83,0,0,1-1.019,1.59c-4.434,4.843-13.029-2.616-19,2.1-4.744,3.749-1.583,10.712-4.3,15.695a10.021,10.021,0,0,1-7.857,4.763c-1.295.114-2.81.091-3.612.958a2.8,2.8,0,0,0-.519,2.12c.276,6.335,2.226,12.946-.549,18.83a15.2,15.2,0,0,1-5.04,5.861A11.838,11.838,0,0,1,270.5,315.9l-.208-.045a6.641,6.641,0,0,0,4.373,2.7,11.867,11.867,0,0,0,8.455-2.3,15.2,15.2,0,0,0,5.04-5.861c2.775-5.884.825-12.5.549-18.83a2.871,2.871,0,0,1,.519-2.12c.8-.867,2.317-.844,3.612-.958a10.04,10.04,0,0,0,7.857-4.763c2.715-4.983-.447-11.946,4.3-15.695,5.971-4.718,14.566,2.741,19-2.1a5.832,5.832,0,0,0,1.019-1.59C326.685,260.532,324.031,255.807,319.5,254.47Z" transform="translate(-197.982 -219.173)" opacity="0.1"/>
  </g>
</svg>
